<svg width="19" height="23" viewBox="0 0 19 23" fill="none" xmlns="http://www.w3.org/2000/svg">
<path d="M6.94166 22.5447C3.67488 22.5259 0.972656 15.8572 0.972656 12.4611C0.972656 6.91345 5.13432 5.69893 6.7382 5.69893C7.461 5.69893 8.2328 5.98277 8.91354 6.23395C9.38958 6.40916 9.8819 6.59004 10.1557 6.59004C10.3196 6.59004 10.7058 6.43617 11.0468 6.30117C11.774 6.01167 12.679 5.65186 13.7327 5.65186C13.7346 5.65186 13.7371 5.65186 13.739 5.65186C14.5258 5.65186 16.9116 5.82454 18.3459 7.97853L18.6819 8.48342L18.1983 8.84829C17.5076 9.36951 16.2472 10.3203 16.2472 12.2036C16.2472 14.4342 17.6746 15.2921 18.3603 15.7047C18.663 15.8868 18.9764 16.0746 18.9764 16.4853C18.9764 16.7534 16.8362 22.5114 13.7283 22.5114C12.9678 22.5114 12.4303 22.2828 11.9561 22.0812C11.4763 21.8771 11.0625 21.7013 10.3786 21.7013C10.0319 21.7013 9.5936 21.8652 9.12952 22.0392C8.49534 22.2759 7.77751 22.5447 6.96301 22.5447H6.94166Z" fill="#333333"/>
<path d="M14.0621 0.595215C14.1431 3.51367 12.0559 5.53837 9.97121 5.41139C9.62769 3.08235 12.0557 0.595215 14.0621 0.595215Z" fill="#333333"/>
</svg>
