<svg width="48" height="48" viewBox="0 0 48 48" fill="none" xmlns="http://www.w3.org/2000/svg">
<path opacity="0.4" fill-rule="evenodd" clip-rule="evenodd" d="M46 30.4399C46.8284 30.4399 47.5 31.1115 47.5 31.9399C47.5 40.5084 40.5684 47.4399 32 47.4399C31.4596 47.4399 30.961 47.1493 30.6947 46.679C30.4284 46.2087 30.4357 45.6316 30.7138 45.1682L32.8138 41.6682C33.24 40.9578 34.1614 40.7275 34.8717 41.1537C35.5821 41.5799 35.8125 42.5013 35.3862 43.2117L34.8436 44.1161C40.3818 42.8312 44.5 37.8731 44.5 31.9399C44.5 31.1115 45.1716 30.4399 46 30.4399Z" fill="#050BAC"/>
<path opacity="0.4" fill-rule="evenodd" clip-rule="evenodd" d="M13.1564 3.76382C7.6182 5.04868 3.5 10.0068 3.5 15.9399C3.5 16.7684 2.82843 17.4399 2 17.4399C1.17157 17.4399 0.5 16.7684 0.5 15.9399C0.5 7.37151 7.43157 0.439941 16 0.439941C16.5404 0.439941 17.039 0.73063 17.3053 1.20089C17.5716 1.67116 17.5643 2.24829 17.2862 2.71168L15.1862 6.21168C14.76 6.92206 13.8386 7.1524 13.1283 6.72618C12.4179 6.29996 12.1875 5.37857 12.6138 4.6682L13.1564 3.76382Z" fill="#050BAC"/>
<path opacity="0.4" d="M29.7 30.6599C29.7 37.4799 24.18 42.9999 17.36 42.9999C10.54 42.9999 5.02002 37.4799 5.02002 30.6599C5.02002 23.8399 10.54 18.3198 17.36 18.3198C17.68 18.3198 17.98 18.3399 18.32 18.3599C24.38 18.8199 29.22 23.6598 29.68 29.7198C29.68 30.0198 29.7 30.3199 29.7 30.6599Z" fill="#050BAC"/>
<path d="M42.9998 17.34C42.9998 24.16 37.4798 29.6801 30.6598 29.6801H29.6798C29.2198 23.6201 24.3798 18.7799 18.3198 18.3199V17.34C18.3198 10.52 23.8398 5 30.6598 5C37.4798 5 42.9998 10.52 42.9998 17.34Z" fill="#050BAC"/>
<path d="M22.2402 30.0199C22.4802 29.5199 22.6202 28.9799 22.6202 28.3999C22.6202 26.3999 20.8602 24.6399 18.8602 24.6399H18.3402V23.8799C18.3402 23.0599 17.6602 22.3799 16.8402 22.3799C16.0202 22.3799 15.3402 23.0599 15.3402 23.8799V24.6399H13.2402C12.4202 24.6399 11.7402 25.3199 11.7402 26.1399V30.6399V35.1399C11.7402 35.9599 12.4202 36.6399 13.2402 36.6399H15.3402V37.3999C15.3402 38.2199 16.0202 38.8999 16.8402 38.8999C17.6602 38.8999 18.3402 38.2199 18.3402 37.3999V36.6399H19.6602C21.9002 36.6399 23.7402 34.9599 23.7402 32.8799C23.7402 31.7399 23.1402 30.6999 22.2402 30.0199ZM14.7402 27.6399H18.8602C19.2802 27.6399 19.6202 28.0999 19.6202 28.3999C19.6202 28.8199 19.2802 29.1599 18.8602 29.1599H14.7402V27.6399ZM19.6602 33.6599H14.7202V32.1599H18.8402H19.6402C20.2802 32.1599 20.7202 32.5599 20.7202 32.9199C20.7202 33.2799 20.3002 33.6599 19.6602 33.6599Z" fill="#050BAC"/>
</svg>
