<svg width="32" height="32" viewBox="0 0 32 32" fill="none" xmlns="http://www.w3.org/2000/svg">
<path opacity="0.4" d="M15.7206 18.9466L11.3606 23.3066C10.8806 22.88 10.4139 22.44 9.96057 21.9866C8.58724 20.6 7.34724 19.1466 6.24057 17.6266C5.14724 16.1066 4.26724 14.5866 3.62724 13.08C2.98724 11.56 2.66724 10.1066 2.66724 8.71996C2.66724 7.81329 2.82724 6.94663 3.14724 6.14663C3.46724 5.33329 3.9739 4.58663 4.68057 3.91996C5.5339 3.07996 6.46724 2.66663 7.4539 2.66663C7.82724 2.66663 8.20057 2.74663 8.5339 2.90663C8.88057 3.06663 9.18724 3.30663 9.42724 3.65329L12.5206 8.01329C12.7606 8.34663 12.9339 8.65329 13.0539 8.94663C13.1739 9.22663 13.2406 9.50663 13.2406 9.75996C13.2406 10.08 13.1472 10.4 12.9606 10.7066C12.7872 11.0133 12.5339 11.3333 12.2139 11.6533L11.2006 12.7066C11.0539 12.8533 10.9872 13.0266 10.9872 13.24C10.9872 13.3466 11.0006 13.44 11.0272 13.5466C11.0672 13.6533 11.1072 13.7333 11.1339 13.8133C11.3739 14.2533 11.7872 14.8266 12.3739 15.52C12.9739 16.2133 13.6139 16.92 14.3072 17.6266C14.7872 18.0933 15.2539 18.5466 15.7206 18.9466Z" fill="#828282"/>
<path d="M29.2939 24.44C29.2939 24.8133 29.2272 25.2 29.0939 25.5733C29.0539 25.68 29.0139 25.7866 28.9605 25.8933C28.7339 26.3733 28.4405 26.8266 28.0539 27.2533C27.4005 27.9733 26.6805 28.4933 25.8672 28.8266C25.8539 28.8266 25.8405 28.84 25.8272 28.84C25.0405 29.16 24.1872 29.3333 23.2672 29.3333C21.9072 29.3333 20.4539 29.0133 18.9205 28.36C17.3872 27.7066 15.8539 26.8266 14.3339 25.72C13.8139 25.3333 13.2939 24.9466 12.8005 24.5333L17.1605 20.1733C17.5339 20.4533 17.8672 20.6666 18.1472 20.8133C18.2139 20.84 18.2939 20.88 18.3872 20.92C18.4939 20.96 18.6005 20.9733 18.7205 20.9733C18.9472 20.9733 19.1205 20.8933 19.2672 20.7466L20.2805 19.7466C20.6139 19.4133 20.9339 19.16 21.2405 19C21.5472 18.8133 21.8539 18.72 22.1872 18.72C22.4405 18.72 22.7072 18.7733 23.0005 18.8933C23.2939 19.0133 23.6005 19.1866 23.9339 19.4133L28.3472 22.5466C28.6939 22.7866 28.9339 23.0666 29.0805 23.4C29.2139 23.7333 29.2939 24.0666 29.2939 24.44Z" fill="#828282"/>
</svg>
