<svg width="514" height="77" viewBox="0 0 514 77" fill="none" xmlns="http://www.w3.org/2000/svg">
<path d="M255.859 63.2138C192.539 67.4997 129.256 71.8577 65.9365 75.9996C53.6095 76.7919 41.2107 77.3682 28.8837 76.7199C12.2566 75.8195 0.753788 64.6185 0.0371014 50.2119C-0.679586 36.1655 9.03148 23.4517 25.3003 21.3988C44.9375 18.9137 64.8614 18.4815 84.6778 17.8693C163.048 15.4922 241.489 14.2315 319.823 10.954C371.783 8.79298 423.671 4.039 475.559 0.113212C494.623 -1.32744 513.149 11.1702 513.973 26.8373C514.762 42.2163 497.884 56.5507 479.286 56.9109C404.822 58.3516 330.358 60.0083 255.859 61.593C255.859 62.0972 255.859 62.6375 255.859 63.2138Z" fill="#F2C94C"/>
</svg>
