<svg width="423" height="642" viewBox="0 0 423 642" fill="none" xmlns="http://www.w3.org/2000/svg">
<g opacity="0.05">
<path fill-rule="evenodd" clip-rule="evenodd" d="M390.773 253.583C391.305 255.576 392.322 256.649 394.199 256.287C397.429 255.665 399.238 253.678 399.422 250.341C399.523 248.511 398.447 248.157 396.924 248.428C393.795 248.984 392.343 251.426 390.773 253.583ZM407.296 -334.025C404.104 -325.051 402.037 -315.792 399.354 -306.693C404.613 -315.031 407.459 -324.094 407.296 -334.025ZM383.643 272.194C370.33 286.549 356.436 300.335 342.325 313.907C359.473 303.321 372.718 288.901 383.643 272.194ZM121.257 414.263C93.7709 426.696 70.9095 445.322 49.0891 465.394C71.8524 448.291 94.5859 431.17 118.887 416.256C119.755 415.721 120.469 414.933 121.257 414.263ZM-193.1 -276.515C-185.111 -303.811 -169.251 -326.958 -161.268 -353.454C-171.31 -346.372 -197.238 -285.405 -193.1 -276.515ZM129.295 -547.881C123.935 -547.881 118.524 -548.345 113.221 -547.798C91.4897 -545.564 70.0441 -541.441 48.6015 -537.381C16.7871 -531.358 -12.5585 -517.839 -42.6656 -506.745C-56.5561 -501.623 -69.8429 -494.639 -79.2539 -482.319C-110.354 -441.596 -135.393 -397.756 -153.168 -349.368C-167.356 -310.751 -185.816 -273.723 -200.979 -235.436C-211.806 -208.107 -218.716 -179.472 -221.812 -150.088C-224.391 -125.609 -222.942 -101.058 -223.118 -76.5276C-223.26 -56.3551 -222.904 -36.1975 -224.174 -15.9595C-225.066 -1.70606 -221.868 13.1423 -220.646 27.7437C-218.489 53.4546 -218.879 78.8472 -226.693 103.788C-233.903 126.798 -243.677 148.707 -255.812 169.406C-280.378 211.316 -311.172 248.651 -343.475 284.698C-360.824 304.055 -377.841 323.603 -392.187 345.302C-418.585 385.227 -431.25 429.323 -430.158 477.069C-429.304 514.395 -412.954 543.374 -380.753 563.065C-324.78 597.289 -265.685 608.24 -202.246 587.399C-153.115 571.257 -109.37 545.608 -69.352 513.032C-44.3936 492.714 -21.6066 469.969 3.28334 449.591C37.1828 421.831 71.6236 394.897 111.549 376.021C142.448 361.411 174.925 351.135 207.59 341.474C235.475 333.226 262.067 322.092 287.189 307.479C316.183 290.614 340.669 269.038 357.617 239.641C359.631 236.14 359.708 236.185 364.295 236.09C365.687 236.06 365.773 234.903 366.24 233.975C370.481 225.513 373.251 216.685 373.364 207.116C373.441 200.653 370.945 191.408 373.158 188.297C380.264 178.315 374.913 168.645 373.605 160.233C371.978 149.799 369.244 138.972 366.047 128.517C358.025 102.271 348.807 76.4944 335.734 52.3837C323.747 30.2659 312.135 7.95185 308.676 -17.0987C307.677 -24.3593 298.926 -32.649 308.265 -40.4033C308.268 -40.4062 307.611 -41.1291 307.331 -41.5604C302.373 -49.2016 299.869 -57.8275 299.491 -66.6883C299.125 -75.1535 296.1 -83.0654 295.737 -91.4325C295.151 -104.936 290.142 -118.062 293.036 -131.932C294.351 -138.244 294.045 -144.939 294.057 -151.462C294.083 -165.98 299.003 -179.814 299.765 -194.368C300.05 -199.82 304.812 -206.748 307.436 -212.991C316.841 -235.371 333.524 -252.417 348.161 -271.09C361.933 -288.654 377.406 -305.873 378.854 -329.954C379.437 -339.669 382.328 -349.921 377.317 -359.038C363.834 -383.538 356.743 -411.314 338.245 -433.28C323.848 -450.377 314.182 -471.09 296.641 -485.945C279.488 -500.472 263.111 -516.111 243.295 -526.843C233.569 -532.111 223.706 -537.503 212.287 -540.023C184.851 -546.079 157.251 -548.265 129.295 -547.881ZM-97.767 582.802C-99.2809 583.26 -100.92 583.489 -102.291 584.218C-136.542 602.433 -172.238 616.859 -210.096 625.717C-211.464 626.038 -213.341 625.991 -214.153 628.094C-211.592 627.728 -209.186 627.442 -206.8 627.029C-175.367 621.562 -146.229 609.566 -117.928 595.36C-110.884 591.824 -103.175 589.078 -97.9097 582.636C-89.4713 582.047 -84.3196 574.926 -77.0174 571.996C-75.7384 571.485 -74.3583 569.159 -76.3095 567.184C-76.958 566.529 -77.8532 566.107 -78.2548 566.877C-82.5052 574.982 -92.8146 575.616 -97.767 582.802ZM-2.08568 459.509C-11.8834 465.603 -19.6794 473.929 -27.4605 482.263C-19.0815 474.598 -8.95659 468.849 -2.24333 459.342C4.91014 456.808 9.48183 450.999 14.5889 445.877C8.09874 449.262 2.52763 453.795 -2.08568 459.509ZM-218.285 -319.888C-212.597 -335.445 -207.151 -350.909 -195.64 -363.72C-188.683 -371.459 -183.136 -380.778 -178.546 -390.165C-176.884 -393.574 -173.829 -394.603 -172.089 -397.649C-168.029 -404.761 -166.538 -412.795 -161.339 -419.704C-149.62 -435.278 -138.052 -450.921 -125.819 -466.132C-117.746 -476.167 -110.191 -486.712 -101.803 -496.513C-86.1726 -514.769 -66.2232 -527.015 -44.0787 -535.733C-18.4898 -545.808 6.85826 -556.739 33.0153 -565.094C81.7601 -580.662 131.513 -586.932 183.003 -580.79C214.024 -577.09 244.235 -571.23 270.82 -555.388C313.337 -530.049 348.387 -496.304 373.143 -452.771C374.071 -451.141 375.264 -449.66 376.379 -448.143C386.498 -434.38 395.633 -420.162 400.279 -403.401C402.581 -395.112 405.981 -387.152 409.735 -379.329C420.868 -356.132 418.729 -332.768 409.738 -309.499C400.686 -286.078 385.57 -266.194 368.673 -248.565C346.094 -225.007 335.499 -197.687 332.126 -166.111C328.988 -136.742 334.143 -108.297 339.375 -79.7457C342.584 -62.2264 345.454 -44.6357 348.902 -27.1639C354.464 1.00086 367.42 26.1049 380.725 51.2715C398.045 84.0407 411.284 118.538 419.288 154.915C425.987 185.355 422.685 215.245 412.319 243.946C406.347 260.48 398.584 276.709 386.002 290.103C373.753 303.145 361.394 315.918 346.787 326.334C311.68 351.376 272.977 368.943 231.942 381.73C185.092 396.328 139.464 413.601 99.4342 443.009C69.7733 464.799 41.552 488.315 14.4461 513.193C-22.4634 547.069 -61.122 578.604 -105.798 601.926C-149.105 624.532 -194.337 642.128 -243.841 641.676C-318.35 640.995 -382.145 614.665 -427.339 553.38C-460.759 508.05 -466.176 456.108 -455.256 401.878C-453.284 392.087 -451.289 382.298 -449.001 372.577C-443.121 347.607 -432.966 324.648 -418.046 303.589C-409.352 291.316 -399.977 279.564 -391.277 267.423C-381.063 253.172 -369.688 240.115 -357.93 227.384C-344.314 212.64 -332.249 196.819 -320.783 180.439C-316.788 174.734 -310.456 171.272 -306.592 165.132C-291.985 141.917 -276.797 119.047 -266.369 93.5114C-260.738 79.7278 -254.998 66.2865 -253.888 50.754C-253.213 41.23 -253.793 31.7385 -252.963 22.2739C-251.72 8.09784 -254.165 -5.87299 -256.419 -19.7278C-257.285 -25.0461 -250.837 -29.3501 -252.226 -29.7219C-259.742 -31.7178 -254.456 -35.9414 -254.611 -39.011C-254.7 -40.8254 -253.549 -42.8183 -253.96 -44.4839C-260.938 -72.7974 -257.922 -101.715 -258.516 -130.311C-259.07 -156.858 -261.39 -183.907 -254.213 -209.927C-251.592 -219.416 -249.682 -229.16 -246.919 -238.645C-243.603 -250.022 -237.484 -260.695 -236.464 -272.565C-235.027 -289.285 -226.577 -303.297 -220.491 -318.244C-220.158 -319.065 -218.924 -319.523 -218.097 -320.174C-218.876 -311.272 -226.167 -304.636 -226.423 -295.48C-220.176 -308.755 -212.377 -321.331 -209.141 -335.965C-212.19 -330.605 -215.236 -325.248 -218.285 -319.888Z" fill="#006EEF"/>
<path fill-rule="evenodd" clip-rule="evenodd" d="M56.1242 329.515C38.6732 339.756 24.5239 353.79 11.2788 368.852C26.1717 355.672 40.8118 342.21 56.1242 329.515ZM-44.7503 417.162C-44.1702 417.781 -43.5902 418.399 -43.0102 419.018C-27.7187 405.047 -11.1542 392.501 2.12364 376.276L-44.7503 417.162ZM306.781 -323.122C315.743 -332.018 319.824 -359.606 313.944 -365.287C312.266 -351.316 312.222 -336.819 306.781 -323.122ZM238.938 232.657C259.964 218.406 278.73 202.059 287.814 177.181C273.355 197.297 257.472 216.119 238.938 232.657ZM-73.4623 442.508C-108.617 470.045 -145.482 494.489 -186.731 511.836C-159.709 508.258 -84.7532 458.725 -73.4623 442.508ZM-61.0979 -214.283C-52.6982 -231.062 -47.493 -249.03 -42.5465 -266.957C-37.487 -285.292 -30.6577 -302.989 -24.7327 -320.988C-19.1319 -338.001 -11.0385 -354.197 -4.04262 -370.753C-33.9831 -322.466 -45.1491 -267.549 -61.0979 -214.283ZM239.679 55.0379C239.539 56.07 239.768 57.5572 239.179 58.0361C238.114 58.9046 237.564 57.581 236.856 56.7987C234.851 54.5976 235.788 51.2752 233.04 49.0712C227.968 45.0111 224.479 39.901 221.954 33.4465C219.801 27.9439 213.923 23.9432 209.917 19.095C209.021 18.0153 207.9 16.189 209.054 14.6542C211.199 11.8076 209.479 10.8737 207.118 10.2044C204.2 9.38349 202.656 7.17646 201.666 4.63331C198.09 -4.52788 193.331 -13.2281 192.266 -23.3203C191.579 -29.8313 190.529 -37.6124 188.117 -42.3625C181.401 -55.5986 181.157 -69.5546 181.793 -82.8116C182.371 -94.8163 184.679 -107.113 184.125 -119.138C183.65 -129.528 188.876 -137.996 190.33 -147.672C192.091 -159.385 200.211 -169.608 201.811 -181.782C202.799 -189.26 210.693 -194.941 210.625 -200.863C210.47 -214.555 222.597 -221.922 224.738 -234.269C225.419 -238.195 227.028 -244.076 230.443 -247.812C237.46 -255.48 239.512 -266.092 246.779 -273.731C255.928 -283.35 260.678 -296.229 270.434 -305.777C276.294 -311.515 280.874 -318.915 286.002 -325.518C290.648 -331.491 290.232 -340.753 291.767 -348.65C293.992 -360.081 287.433 -368.984 284.473 -379.025C277.4 -403.017 262.659 -422.85 245.401 -438.853C211.698 -470.108 171.332 -480.379 126.451 -464.019C121.895 -462.359 117.344 -460.688 112.748 -459.144C85.8 -450.096 62.5192 -435.141 40.8952 -416.785C12.5965 -392.764 -0.80324 -359.266 -16.4814 -327.559C-21.9662 -316.47 -24.0989 -302.874 -28.2393 -290.56C-31.0739 -282.13 -34.1257 -273.713 -36.0769 -265.06C-38.0429 -256.336 -40.7229 -247.859 -43.3344 -239.355C-45.94 -230.866 -49.6104 -222.666 -51.6747 -214.064C-53.5129 -206.414 -57.2756 -199.578 -58.8609 -191.649C-60.9787 -181.048 -64.4379 -170.489 -67.3172 -159.909C-77.6681 -121.86 -85.4106 -83.3113 -90.0745 -44.1322C-92.6593 -22.419 -94.542 -0.500452 -99.0394 20.844C-113.566 89.8297 -145.333 150.782 -189.087 205.561C-208.644 230.044 -229.39 253.583 -249.863 277.322C-279.179 311.311 -295.086 351.766 -307.07 394.205C-314.524 420.591 -313.233 446.659 -303.549 472.123C-298.025 486.635 -289.798 498.753 -272.439 501.617C-256.276 504.285 -240.506 500.457 -225.223 497.632C-216.136 495.948 -206.237 491.626 -197.118 487.215C-175.241 476.629 -153.052 466.632 -134.03 451.225C-129.5 447.56 -123.861 447.069 -119.334 443.408C-113.54 438.723 -109.491 432.397 -103.171 428.188C-99.542 425.776 -95.1934 425.541 -91.8472 422.447C-70.6277 402.846 -46.642 386.359 -27.4897 364.383C-20.8418 356.751 -12.6295 350.502 -5.38674 343.363C21.8084 316.573 53.4562 296.528 89.1076 283.432C132.814 267.376 173.602 245.853 211.758 219.556C226.347 209.502 241.975 200.02 252.436 184.734C258.501 175.868 266.3 166.828 267.246 156.671C268.65 141.647 270.178 125.957 265.062 110.99C263.828 107.379 266.029 102.346 265.262 101.112C262.302 96.3734 260.517 91.0135 257.311 86.4685C250.387 76.644 240.839 68.2473 239.679 55.0379ZM247.977 -234.704C245.675 -233.835 245.104 -231.533 244.31 -229.692C236.749 -212.185 228.575 -194.891 223.516 -176.426C220.556 -165.62 215.363 -155.323 215.532 -143.737C220.758 -164.228 229.866 -183.336 236.335 -203.365C239.768 -213.996 246.19 -223.553 247.805 -234.862C257.046 -247.051 261.582 -261.691 269.054 -274.802C261.151 -261.89 251.862 -249.689 247.977 -234.704ZM-95.0598 -185.996C-94.7385 -184.024 -95.0479 -182.272 -93.0818 -181.281C-92.7337 -184.315 -90.2918 -187.212 -94.3072 -189.872C-96.6421 -191.415 -94.447 -193.926 -93.8491 -195.794C-88.4684 -212.593 -83.2364 -229.464 -78.0401 -246.29C-73.0966 -262.311 -67.1924 -278.111 -63.4863 -294.518C-61.6273 -302.754 -57.6326 -310.157 -54.6076 -317.929C-53.2156 -321.499 -52.0437 -324.904 -52.0437 -328.783C-52.0407 -336.671 -51.4934 -336.876 -44.2001 -332.73C-43.5904 -332.385 -42.6683 -332.593 -41.6838 -332.531C-41.6838 -333.408 -41.4131 -334.277 -41.7225 -334.797C-46.3744 -342.519 -45.3899 -351.778 -39.9259 -359.217C-36.3209 -364.125 -33.0401 -369.089 -31.4815 -375.538C-29.1406 -385.243 -22.4869 -392.882 -14.7593 -399.265C-14.0574 -399.845 -12.4601 -399.577 -12.3858 -400.928C-11.9515 -408.929 -5.51186 -412.766 -0.654624 -417.531C3.98249 -422.079 9.69932 -425.401 14.0569 -430.395C21.5137 -438.95 29.9016 -446.032 40.1217 -451.728C44.8391 -454.357 49.6309 -459.351 54.8838 -461.409C74.2918 -469.018 93.3222 -477.531 112.98 -484.622C146.195 -496.606 178.896 -493.09 211.862 -485.092C231.255 -480.386 248.786 -471.71 264.812 -459.794C270.94 -455.237 275.898 -449.69 280.934 -444.06C300.175 -422.558 313.664 -397.941 320.44 -369.958C324.78 -352.037 322.043 -334.515 313.066 -318.381C310.705 -314.137 308.887 -308.572 300.919 -309.533C297.448 -309.952 294.003 -303.495 291.311 -299.396C272.278 -270.422 256.802 -239.646 244.339 -207.314C231.219 -173.28 219.771 -138.89 215.351 -102.355C212.141 -75.8353 215.726 -50.4011 222.189 -24.8091C227.364 -4.31243 238.06 12.8232 250.273 29.5097C259.426 42.0112 267.611 55.2146 276.648 67.8053C279.851 72.267 275.809 75.1135 274.86 80.8512C279.806 74.126 280.618 75.4764 282.724 81.0088C284.83 86.5382 288.691 91.7018 291.74 97.0617C298.26 108.537 301.987 121.047 302.112 133.939C302.159 138.829 304.714 142.909 304.054 147.538C303.224 153.373 302.817 159.358 301.166 164.971C298.251 174.896 296.422 185.36 286.719 192.1C284.039 193.962 285.63 199.739 282.585 203.008C269.551 217.002 257.278 231.916 240.978 242.294C202.198 266.987 161.579 288.02 119.03 305.741C89.4049 318.082 61.1212 333.671 37.772 356.598C3.41149 390.334 -32.7307 422.089 -69.9139 452.645C-105.164 481.61 -142.933 506.467 -186.246 522.02C-204.432 528.549 -223.079 532.425 -242.35 533.754C-269.857 535.652 -290.455 523.133 -306.437 502.338C-337.127 462.401 -344.331 417.454 -332.523 369.12C-324.584 336.613 -312.891 305.441 -296.401 276.262C-288.659 262.567 -281.282 248.707 -268.513 238.287C-262.421 233.317 -259.158 224.923 -254.477 218.177C-238.465 195.114 -218.323 175.337 -202.386 152.133C-195.289 141.803 -189.289 130.905 -182.6 120.387C-168.001 97.4336 -158.034 72.1004 -147.059 47.3979C-137.427 25.7233 -133.944 2.038 -130.473 -21.4361C-126.737 -46.7276 -122.781 -71.9953 -118.474 -97.1947C-115.988 -111.751 -114.254 -126.781 -109.075 -140.419C-105.479 -149.895 -105.345 -159.988 -101.041 -169.173C-98.5696 -174.44 -101.226 -181.656 -95.0598 -185.996Z" fill="#006EEF"/>
<path fill-rule="evenodd" clip-rule="evenodd" d="M-5.45846 -82.2521C-6.2675 -82.6774 -7.07953 -83.1058 -7.88856 -83.5311C-10.4882 -76.6334 -17.8767 -71.7286 -14.4769 -62.3086C-11.4698 -68.9564 -8.46561 -75.6043 -5.45846 -82.2521ZM149.443 177.149C166.311 173.982 183.61 158.098 181.853 147.337C173.685 160.674 161.847 169.22 149.443 177.149ZM6.51354 279.098C7.00728 279.756 7.50402 280.41 7.99776 281.062C30.4725 261.582 52.9502 242.1 75.4219 222.617C74.946 222.061 74.4671 221.505 73.9882 220.946L6.51354 279.098ZM-58.3705 341.084C-79.4978 356.684 -101.211 371.381 -124.548 383.606C-148.139 395.965 -172.002 407.717 -196.202 418.677C-147.035 398.597 -98.4508 377.434 -58.3705 341.084ZM93.4379 -289.775C87.7538 -280.51 80.8561 -272.339 76.219 -262.208C65.7222 -239.287 53.539 -217.128 43.5509 -193.921C28.6639 -159.347 12.9977 -125.138 -5.36937 -92.235C-6.51749 -90.1737 -7.58531 -88.1006 -4.53653 -85.1112C31.9953 -152.057 57.9679 -223.211 93.4379 -289.775ZM-60.5029 305.368C-50.9789 301.106 -46.2703 291.894 -39.4351 284.866C-30.4583 279.648 -25.494 270.252 -17.5047 263.949C-3.73018 253.084 10.4102 242.566 23.2954 230.704C49.9611 206.15 79.4049 186.097 112.055 170.315C124.176 164.452 138.316 163.2 148.673 153.063C155.009 146.864 162.709 141.852 163.281 132.144C164.128 117.76 161.88 103.86 154.949 90.9303C142.135 67.0279 124.875 46.1326 109.789 23.768C94.1104 0.52583 80.1009 -23.1238 76.5315 -52.0679C73.1229 -79.7538 75.1752 -107.196 76.8022 -134.685C77.1324 -140.253 80.901 -145.563 81.1062 -152.011C81.3888 -161.018 81.481 -171.03 87.2008 -178.409C97.519 -191.729 100.94 -207.975 107.695 -222.758C109.907 -227.606 108.551 -234.751 112.808 -238.46C118.489 -243.412 120.018 -249.932 122.736 -256.158C123.795 -258.588 125.267 -261.03 127.132 -262.883C133.286 -269.001 137.162 -277.08 141.448 -284.061C149.863 -297.77 159.229 -309.906 171.05 -320.661C174.455 -323.763 179.836 -323.386 181.883 -328.222C183.929 -333.049 187.692 -336.622 191.636 -339.95C195.663 -343.35 197.721 -347.797 199.322 -352.999C196.368 -353.847 194.461 -352.642 192.516 -351.928C180.279 -347.446 169.815 -339.54 157.998 -334.165C137.269 -324.736 119.783 -311.057 105.937 -292.77C95.5767 -279.088 88.5452 -263.606 81.13 -248.335C66.4363 -218.07 51.5048 -187.901 37.7243 -157.217C30.0057 -140.027 21.9777 -123.014 13.4351 -106.256C-0.758773 -78.4153 -13.406 -49.8608 -25.732 -21.1963C-35.6041 1.76025 -43.7748 25.4277 -49.1228 49.9667C-53.7867 71.3914 -61.9188 91.6978 -69.8694 112.04C-85.0062 150.773 -100.405 189.351 -125.36 223.224C-147.781 253.658 -170.491 283.887 -190.753 315.862C-205.875 339.729 -219.001 364.431 -225.443 392.18C-226.134 395.157 -228.341 399.062 -225.809 401.252C-223.665 403.108 -220.167 400.669 -217.457 399.598C-189.045 388.355 -161.696 374.967 -135.232 359.651C-130.452 356.885 -126.205 350.63 -118.891 353.688C-117.859 354.119 -115.702 352.67 -116.33 351.43C-118.546 347.046 -114.245 347.099 -112.597 346.011C-102.189 339.131 -91.9158 332.084 -81.7641 324.824C-73.8224 319.146 -68.3049 311.052 -60.5029 305.368ZM149.211 -255.602C146.918 -255.441 146.261 -253.582 145.419 -251.932C134.771 -231.033 126.873 -208.921 117.204 -187.601C112.566 -177.366 114.152 -165.087 106.362 -155.986C105.029 -154.427 105.449 -152.892 107.308 -152.095C109.747 -151.048 111.058 -152.675 111.332 -154.668C112.391 -162.44 116.103 -169.258 118.682 -176.494C125.327 -195.135 131.02 -214.043 139.91 -231.92C143.605 -239.353 147.7 -247.178 149.024 -255.78C155.594 -264.487 160.285 -274.18 163.953 -284.406C159.351 -274.647 150.526 -267.054 149.211 -255.602ZM-139.382 197.46C-142.267 192.576 -141.288 189.51 -139.349 184.781C-134.623 173.249 -124.971 164.189 -123.147 151.324C-122.499 146.732 -118.933 143.264 -116.749 139.4C-111.19 129.566 -110.122 118.124 -105.122 108.543C-100.378 99.4533 -98.3437 89.498 -93.5072 80.6104C-90.9373 75.8929 -91.8416 70.0184 -88.4954 65.4438C-86.2378 62.3623 -80.6577 43.1803 -80.0093 39.489C-78.3823 30.191 -76.4906 20.9376 -74.6137 11.6841C-74.2925 10.0958 -73.5786 8.46283 -71.4162 8.80487C-69.1854 9.15585 -68.1057 8.14157 -68.9623 6.16061C-72.1688 -1.26352 -68.3407 -7.91431 -65.4882 -13.7442C-57.1926 -30.6865 -49.9885 -48.1017 -42.7041 -65.4456C-41.2615 -68.884 -34.5602 -67.95 -36.9487 -74.8001C-38.1533 -78.2594 -34.2598 -84.2528 -31.565 -88.7264C-28.9415 -93.0928 -27.1777 -97.9649 -24.8011 -102.492C-7.29667 -135.862 8.78898 -169.895 24.0299 -204.366C32.4832 -223.485 42.5724 -241.873 51.4778 -260.803C53.7265 -265.585 55.1989 -270.954 56.7099 -276.07C58.0989 -280.77 60.1364 -287.51 65.877 -290.463C66.9419 -291.011 67.6051 -291.496 67.9532 -292.587C74.9728 -314.693 93.8306 -326.255 110.648 -339.202C122.688 -348.474 137.373 -353.949 151.035 -360.356C159.488 -364.318 167.263 -370.624 177.111 -372.016C186.983 -373.414 196.79 -375.196 206.799 -375.398C216.508 -375.594 225.484 -373.322 233.524 -367.742C237.736 -364.821 238.376 -361.109 236.537 -356.418C231.983 -344.785 225.116 -335.047 214.539 -328.131C210.487 -325.478 206.157 -323.182 203.459 -318.851C201.534 -315.761 198.274 -319.651 194.699 -316.136C182.049 -303.694 174.17 -288.563 166.055 -273.355C149.25 -241.852 136.74 -208.545 124.693 -175.053C119.482 -160.559 116.769 -145.449 114.399 -130.255C112.9 -120.663 111.891 -111.064 111.249 -101.391C110.954 -96.9061 109.149 -93.2207 103.643 -95.9512C100.359 -97.5812 99.3482 -95.1927 97.8074 -93.5033C96.7128 -92.3016 96.9359 -90.9274 97.9889 -89.9161C99.9103 -88.0779 101.579 -89.9935 103.081 -90.7251C109.244 -93.7234 111.258 -91.9358 110.945 -85.1957C110.077 -66.6235 109.607 -48.0452 114.431 -29.7882C116.832 -20.6894 120.202 -11.9596 124.595 -3.71444C137.436 20.3992 154.021 42.1332 168.688 65.0928C179.417 81.8983 190.452 98.7008 192.706 119.212C193.233 123.986 197.022 129.804 190.419 133.68C190.053 133.891 189.732 134.569 189.762 135.004C191.041 153.766 190.461 154.236 177.709 167.386C169.434 175.92 159.342 181.857 149.06 186.583C111.225 203.98 79.3423 229.293 48.1317 256.381C10.1394 289.358 -24.4739 326.152 -63.9445 357.261C-107.187 391.336 -156.648 414.685 -209.15 430.816C-236.862 439.328 -257.395 418.647 -251.354 389.888C-245.322 361.173 -234.432 334.296 -219.968 308.725C-203.361 279.373 -184.334 251.565 -165.922 223.391C-160.872 215.661 -156.589 207.276 -150.429 200.143C-147.234 196.446 -144.864 193.198 -139.382 197.46Z" fill="#006EEF"/>
</g>
</svg>
