<svg width="704" height="610" viewBox="0 0 704 610" fill="none" xmlns="http://www.w3.org/2000/svg">
<path fill-rule="evenodd" clip-rule="evenodd" d="M454.93 0.95549C452.008 4.57855 451.166 8.27501 449.698 23.9076C447.661 45.6045 447.638 45.112 450.747 47.1182C453.172 48.684 453.895 48.6861 459.269 47.1469C466.384 45.1088 493.449 32.2706 494.688 30.3463C495.175 29.589 495.581 28.4082 495.591 27.7221C495.627 25.016 489.166 19.2006 478.871 12.6757C472.933 8.91112 466.842 4.70301 465.335 3.32442C461.934 0.211943 456.522 -1.01986 454.93 0.95549ZM473.469 18.0666C478.76 22.3088 483.068 26.2574 483.043 26.8424C482.912 29.9932 459.492 38.5551 457.909 36.032C457.137 34.8012 458.164 19.2463 459.376 13.8117C459.88 11.5513 460.787 10.3546 461.998 10.3546C463.016 10.3546 468.178 13.8245 473.469 18.0666ZM340.092 69.1714C324.198 72.7317 314.983 83.169 311.018 102.101C310.313 105.465 309.338 108.218 308.851 108.218C308.364 108.218 305.605 106.567 302.719 104.55C286.451 93.1766 279.483 89.0185 273.22 86.9484C261.972 83.2297 254.414 85.4635 246.829 94.7477C243.616 98.6803 243.48 99.2686 243.108 110.82C242.798 120.419 243.176 124.59 245.002 131.736C248.107 143.897 258.094 163.441 270.511 181.663C276.189 189.995 280.687 197.574 280.504 198.505C280.136 200.391 274.614 201.667 266.398 201.764C260.328 201.837 251.244 206.011 244.291 211.922C237.937 217.324 231.538 228.396 228.895 238.561C226.05 249.504 224.85 264.991 226.678 267.162C227.802 268.496 226.924 269.224 220.983 271.878C209.656 276.937 204.074 286.804 204.074 301.765C204.074 330.329 232.207 366.713 254.282 366.699C263.193 366.694 269.627 361.327 274.041 350.216C277.625 341.193 277.964 336.728 275.317 333.413C272.706 330.143 272.172 330.004 269.528 331.907C268.236 332.839 267.334 335.603 266.713 340.532C265.985 346.325 265.183 348.426 262.741 350.958C256.17 357.769 250.446 358.201 247.15 352.135C245.279 348.692 240.385 346.266 236.157 346.688C233.212 346.983 232.253 346.346 228.638 341.706C220.229 330.913 212.871 314.972 214.122 310.26C214.423 309.124 214.229 308.464 213.691 308.792C213.152 309.12 212.712 307.634 212.712 305.49C212.712 302.883 213.607 300.544 215.411 298.432C218.669 294.617 218.867 292.927 215.951 293.839C213.092 294.733 213.185 293.04 216.366 286.308C222.408 273.527 233.521 272.778 231.783 285.27C231.445 287.696 230.853 290.493 230.465 291.488C229.825 293.133 230.027 293.161 232.708 291.79C236.454 289.875 238.025 290.503 240.879 295.052C244.402 300.669 257.626 311.055 267.239 315.757C287.633 325.731 306.717 320.872 311.557 304.473C313.779 296.943 312.79 289.437 308.303 279.782C304.832 272.314 293.84 257.14 291.9 257.14C289.316 257.14 290.347 262.537 294.109 268.702C300.009 278.371 302.13 283.039 304.056 290.589C306.184 298.939 305.087 304.631 300.597 308.524C288.627 318.906 258.377 308.598 245.963 289.906C241.888 283.769 240.159 280.035 241.877 281.081C242.464 281.439 242.945 280.774 242.945 279.604C242.945 278.434 242.409 277.151 241.755 276.752C241.101 276.353 239.86 274.365 238.998 272.333C237.612 269.065 237.625 268.348 239.108 266.119C241.507 262.514 241.219 260.892 237.43 256.641L234.076 252.878L235.913 245.492C236.923 241.431 239.098 235.329 240.745 231.934C243.786 225.667 251.761 216.712 252.461 218.78C252.67 219.401 253.531 219.909 254.372 219.909C255.214 219.909 255.902 220.627 255.902 221.505C255.902 222.383 256.631 223.101 257.521 223.101C259.388 223.101 259.666 219.672 258.042 216.683C257.061 214.878 257.579 214.479 262.868 212.964C266.127 212.031 270.631 211.417 272.876 211.6C276.836 211.922 276.967 212.063 277.286 216.408C277.507 219.396 276.371 224.55 273.867 231.922C267.146 251.711 266.744 255.012 271.055 255.012C272.957 255.012 275.395 250.877 280.115 239.652C282.618 233.698 289.882 209.025 301.27 167.787C316.528 112.538 325.261 87.0431 330.696 81.8777C335.466 77.3462 338.841 76.3058 348.778 76.3058C358.44 76.3058 361.231 76.793 388.172 83.1839C398.861 85.7188 413.991 89.2802 421.794 91.097C447.833 97.1603 466.094 104.367 479.751 113.967C485.622 118.094 486.863 119.536 487.851 123.37C491.086 135.923 490.418 142.151 483.261 166.191C474.87 194.381 459.296 249.262 449.758 284.265C444.656 302.987 439.543 320.937 438.397 324.155C437.249 327.373 434.593 337.425 432.494 346.493C428.048 365.692 422.74 377.852 418.046 379.591C412.763 381.549 394.246 391.053 386.844 395.607C366.151 408.335 344.674 427.836 333.736 443.824C330.533 448.505 326.896 453.161 325.651 454.172C322.151 457.014 314.915 456.459 302.332 452.389C296.096 450.371 286.694 447.749 281.439 446.561C248.656 439.156 234.092 419.934 242.29 394.893C245.151 386.158 245.996 375.882 243.957 374.641C242.527 373.77 238.626 377.124 238.626 379.224C238.626 382.513 232.759 391.192 228.785 393.783C218.438 400.529 204.938 393.749 196.659 377.65C193.65 371.799 193.754 370.085 197.169 369.24C199.418 368.685 200.459 369.135 202.36 371.484C205.191 374.982 208.263 374.531 211.148 370.193C212.982 367.437 212.96 367.337 210.052 365.053C207.533 363.075 207.268 362.392 208.287 360.516C209.219 358.801 209.151 358.117 207.98 357.453C207.152 356.984 206.294 355.641 206.072 354.471C205.82 353.13 204.677 352.234 202.983 352.046C195.531 351.22 195.428 351.125 196.144 345.68C196.737 341.171 198.97 336.92 200.746 336.92C201.106 336.92 201.882 337.965 202.468 339.244C204.349 343.346 205.749 342.418 207.074 336.192C208.442 329.767 207.905 328.462 203.874 328.426C193.076 328.329 183.662 344.338 184.931 360.639C185.259 364.852 186.569 371.031 187.843 374.37C190.247 380.678 198.487 393.83 204.766 401.385L208.393 405.749L208.411 431.169C208.434 461.969 209.987 471.184 216.73 480.523L218.65 483.182L216.08 481.542C213.713 480.03 213.11 480.091 208.374 482.324C205.55 483.656 202.988 485.383 202.685 486.163C202.382 486.943 189.447 495.447 173.941 505.061C158.436 514.674 145.487 523.349 145.167 524.337C144.846 525.324 146.551 530.685 148.954 536.25C153.387 546.507 154.288 551.081 152.136 552.391C150.43 553.43 147.664 550.319 141.677 540.624C136.079 531.561 134.569 530.793 130.11 534.745C128.923 535.798 122.242 540.104 115.264 544.315C108.285 548.526 102.577 552.073 102.577 552.196C102.577 552.32 105.003 559.74 107.968 568.686L113.36 584.952L113.515 601.082C113.69 619.25 112.745 623.076 105.401 633.977C97.437 645.797 88.3326 650.098 71.2638 650.103C60.2579 650.105 59.6586 649.981 50.7485 645.818C40.818 641.179 30.9792 633.098 24.2232 624.031C21.2366 620.023 19.6559 618.808 17.4305 618.808C13.4041 618.808 7.16633 624.188 4.17433 630.242C2.00834 634.627 1.65958 637.034 1.54297 648.422C1.44255 658.295 1.75568 661.679 2.80952 662.078C3.58047 662.369 8.24393 660.371 13.173 657.638C22.3369 652.558 24.9045 652.32 25.7349 656.475C26.59 660.761 10.9951 670.898 3.5092 670.92C0.13281 670.931 0 671.092 0 675.215C0 683.87 3.34292 710.915 4.79519 714.012C5.61796 715.767 6.63293 719.483 7.04972 722.268C7.4665 725.055 8.26552 727.614 8.82591 727.955C9.38631 728.296 11.6646 727.333 13.8878 725.814C18.5178 722.654 20.7518 722.366 22.7018 724.681C24.8333 727.212 22.4783 730.977 16.2535 734.987C8.59593 739.92 7.15769 743.397 7.79691 755.434C8.0798 760.759 8.83023 766.063 9.46405 767.221C10.0979 768.379 12.1624 775.71 14.0498 783.514C17.4812 797.692 18.9994 801.072 27.984 814.534C32.1508 820.777 40.0243 826.296 48.0491 828.597C50.4245 829.278 58.6847 829.843 66.4049 829.854C84.9724 829.878 133.922 827.712 136.319 826.759C138.691 825.816 138.796 821.034 136.601 813.906C134.478 807.013 134.535 801.285 136.748 799.106C138.399 797.479 138.667 797.494 140.514 799.312C141.607 800.39 143.498 805.018 144.715 809.597C147.068 818.448 149.185 822.494 152.327 824.151C153.612 824.828 159.465 824.569 169.72 823.382C178.222 822.397 185.259 821.56 185.358 821.521C185.456 821.48 186.033 817.081 186.638 811.744C188.001 799.713 190.607 794.063 198.525 785.969C205.75 778.582 211.322 775.571 221.739 773.423C234.812 770.729 244.175 773.328 252.915 782.076C258.751 787.919 262.38 796.123 262.38 803.475C262.38 809.204 263.884 812.407 266.576 812.407C267.655 812.407 270.883 811.178 273.751 809.676C277.587 807.667 281.091 806.823 287.011 806.485C292.639 806.163 296.146 805.362 298.681 803.818C303.672 800.78 308.128 800.169 325.006 800.208C338.311 800.239 341.233 800.63 358.479 804.683C392.835 812.759 429.556 818.084 499.926 825.197C523.384 827.567 543.891 829.781 545.496 830.114C548.724 830.784 550.316 829.41 558.635 818.789C565.186 810.425 574.184 803.7 587.875 796.938C601.422 790.247 611.215 787.895 616.517 790.059C619.141 791.13 619.803 792.161 620.404 796.108C621.256 801.709 619.276 815.094 616.541 822.213C615.481 824.975 612.86 829.586 610.718 832.461C606.237 838.475 606.087 839 608.853 839C611.709 839 616.484 832.405 619.584 824.179C621.635 818.734 622.364 814.215 622.887 803.682C623.271 795.955 624.08 789.657 624.777 788.972C626.582 787.197 633.818 786.516 641.846 787.362C648.107 788.023 648.932 788.373 648.932 790.364C648.932 791.603 646.651 795.968 643.862 800.062C636.827 810.392 633.816 819.05 633.816 828.942C633.816 833.304 634.258 836.873 634.797 836.873C635.337 836.873 636.359 833.403 637.066 829.16C639.397 815.195 643.448 804.075 647.875 799.49C653.3 793.872 655.502 794.734 662.487 805.212C666.228 810.823 683.352 829.706 686.074 831.223C689.032 832.871 696.041 834.05 697.521 833.15C698.221 832.724 696.948 830.739 694.306 828.136C691.901 825.767 686.544 818.447 682.401 811.869C675.069 800.227 668.829 793.327 663.451 790.913C661.999 790.261 660.812 789.445 660.814 789.099C660.825 787.329 665.383 781.487 668.546 779.189C672.578 776.259 683.799 771.567 690.773 769.895C702.387 767.109 704 766.515 704 765.029C704 762.806 699.17 763.057 690.975 765.708C682.111 768.575 675.159 772.066 665.396 778.553C661.088 781.414 656.867 784.019 656.016 784.341C652.488 785.674 647.853 770.693 647.853 757.961C647.853 752.45 648.092 751.774 650.048 751.774C651.256 751.774 654.641 752.971 657.57 754.433C662.152 756.721 664.301 757.085 672.921 757.036C682.88 756.98 698.984 754.942 700.387 753.56C702.145 751.828 699.049 751.574 688.657 752.599C674.287 754.014 659.522 752.137 654.275 748.227C644.914 741.249 648.235 727.649 663.14 711.925C668.923 705.823 670.237 703.906 668.635 703.906C662.405 703.906 654.267 713.235 648.56 726.917C643.558 738.913 643.211 739.476 640.627 739.859C638.166 740.223 632.276 733.719 628.567 726.542C623.502 716.742 621.803 702.934 624.023 689.61C625.162 682.771 629.201 678.98 634.213 680.045C640.43 681.365 648.338 684.678 654.295 688.459C657.541 690.519 660.495 692.205 660.858 692.205C662.261 692.205 667.64 666.252 669.477 650.623C671.472 633.648 670.735 627.279 665.539 616.613C651.764 588.334 628.744 575.225 564.878 559.29C552.795 556.276 540.405 552.833 537.344 551.642C533.968 550.327 524.93 548.684 514.364 547.465C504.785 546.361 495.644 544.967 494.048 544.369C492.453 543.772 489.241 543.283 486.911 543.283C483.457 543.283 466.766 539.542 465.596 538.505C465.42 538.35 466.959 534.216 469.016 529.317C489.826 479.77 507.531 419.508 518.839 359.729C523.455 335.329 524.808 322.702 525.447 298.093C526.115 272.396 524.753 258.63 520.416 247.209C513.086 227.911 496.91 225.867 479.105 241.993C475.638 245.133 472.224 247.499 471.518 247.251C469.288 246.472 470.527 239.617 476.027 222.293C494.071 165.461 498.828 147.201 498.839 134.739C498.849 122.655 496.762 116.096 490.843 109.611C484.577 102.744 477.646 99.1867 464.117 95.8966C457.979 94.4031 439.838 88.9504 423.804 83.7796C407.769 78.6078 388.82 73.0838 381.693 71.502C366.522 68.1364 349.076 67.1588 340.092 69.1714ZM271.702 94.0425C276.258 95.4572 277.995 95.5711 280.165 94.5967C282.674 93.4702 282.896 93.5787 282.896 95.9317C282.896 98.8995 283.886 99.977 293.734 107.718C301.552 113.863 305.571 118.244 305.571 120.622C305.571 123.131 287.308 185.14 286.267 186.166C284.435 187.97 281.115 184.976 275.075 176.081C260.876 155.163 249.121 129.492 253.742 129.492C254.336 129.492 254.822 130.006 254.822 130.634C254.822 131.262 255.672 131.613 256.712 131.413C257.867 131.192 259.455 132.296 260.799 134.254C262.008 136.015 263.846 137.617 264.884 137.814C266.6 138.139 266.572 137.848 264.581 134.63C261.745 130.05 261.813 128.9 265.08 126.102C266.946 124.505 267.779 122.699 267.779 120.259C267.779 118.317 267.401 116.728 266.94 116.728C265.218 116.728 261.301 120.094 261.301 121.575C261.301 122.674 259.998 123.106 256.712 123.094C249.66 123.068 248.877 122.138 248.93 113.84C249.005 101.94 254.587 94.7158 265.525 92.3575C265.77 92.3054 268.549 93.0628 271.702 94.0425ZM383.043 99.7483C382.004 100.37 381.153 101.359 381.153 101.947C381.153 104.489 399.958 110.558 420.348 114.596C427.39 115.991 430.098 114.921 429.524 110.971C429.051 107.709 423.43 105.478 408.147 102.484C389.961 98.9218 385.279 98.4123 383.043 99.7483ZM264.218 103.57C263.843 103.94 264.057 105.202 264.694 106.374C265.626 108.09 266.036 108.219 266.799 107.032C268.197 104.856 267.98 102.899 266.34 102.899C265.547 102.899 264.593 103.201 264.218 103.57ZM338.977 141.582C330.106 143.939 322.737 150.732 320.595 158.527C318.896 164.717 319.885 175.904 322.594 181.131C325.746 187.212 333.599 193.998 339.215 195.495C345.327 197.123 354.844 196.232 360.176 193.532C368.91 189.108 373.656 181.562 374.433 170.863C375.069 162.1 372.832 154.884 367.618 148.883C360.619 140.827 351.023 138.381 338.977 141.582ZM264.653 142.654C263.354 144.195 264.097 147.576 265.735 147.576C266.265 147.576 266.699 146.14 266.699 144.385C266.699 140.801 266.417 140.562 264.653 142.654ZM154.052 147.373C153.054 148.459 151.465 151.581 150.521 154.311C149.576 157.041 148.252 159.61 147.578 160.02C146.904 160.431 142.676 160.792 138.182 160.821C128.972 160.882 125.462 162.459 121.965 168.11C119.422 172.219 119.227 179.144 121.503 184.509C122.41 186.649 125.811 191.145 129.061 194.502C132.743 198.304 134.969 201.534 134.969 203.073C134.969 205.801 129.792 222.04 128.465 223.472C125.431 226.748 118.001 217.943 116.796 209.64C116.064 204.602 115.961 204.485 112.282 204.485C108.59 204.485 108.509 204.58 108.163 209.272C107.567 217.363 109.649 221.839 117.4 229.145L124.432 235.773L123.677 241.729C122.829 248.418 124.74 252.885 128.452 252.885C130.909 252.885 131.706 251.791 133.874 245.439C135.426 240.896 135.991 240.422 144.969 236.138C155.051 231.326 157.669 228.592 159.905 220.538C161.659 214.219 160.339 210.206 154.258 203.36C148.853 197.274 148.769 197.073 149.399 191.784C150.754 180.429 154.803 171.313 158.039 172.332C158.713 172.544 161.669 175.676 164.61 179.294C168.369 183.919 170.691 185.87 172.438 185.87C174.608 185.87 174.92 185.343 174.92 181.674C174.92 177.915 174.336 177.001 169.314 172.898C158.313 163.911 158.184 163.699 158.184 154.446C158.184 145.722 157.167 143.981 154.052 147.373ZM356.035 150.085C368.563 157.961 371.37 169.439 363.31 179.838C358.247 186.37 351.665 188.913 344.593 187.071C327.775 182.689 321.482 162.7 333.398 151.514C339.358 145.92 348.491 145.344 356.035 150.085ZM334.724 154.402C334.724 156.135 335.322 157.149 336.344 157.149C337.234 157.149 337.963 157.882 337.963 158.778C337.963 159.675 337.234 160.683 336.344 161.019C334.024 161.897 334.346 163.186 337.058 163.885C340.854 164.862 343.362 162.845 343.362 158.812C343.362 155.76 342.843 155.028 339.853 153.866C337.922 153.115 335.98 152.31 335.534 152.077C335.088 151.844 334.724 152.89 334.724 154.402ZM351.386 154.077C350.977 154.727 351.245 155.626 351.982 156.074C353.877 157.228 357.399 156.117 357.399 154.366C357.399 152.602 352.46 152.364 351.386 154.077ZM392.523 163.48C390.188 167.204 400.146 171.371 421.644 175.668C428.771 177.092 436.938 178.838 439.794 179.546C445.541 180.974 450.258 179.768 450.258 176.873C450.258 173.481 439.959 170.15 415.706 165.699C398.382 162.518 393.424 162.044 392.523 163.48ZM141.918 168.824C145.493 170.163 145.473 172.673 141.817 181.854C138.752 189.551 137.383 190.395 132.936 187.326C126.071 182.589 126.65 171.613 133.894 169.176C138.647 167.578 138.596 167.58 141.918 168.824ZM384.393 190.243L381.693 191.341L384.167 193.332C390.35 198.308 425.679 208.208 437.255 208.208C440.871 208.208 441.62 207.851 441.62 206.122C441.62 200.436 432.311 196.704 408.687 192.919C399.185 191.397 390.439 189.925 389.251 189.648C388.064 189.371 385.877 189.639 384.393 190.243ZM149.934 213.248C151.504 217.488 151.464 217.765 148.703 221.876C145.998 225.902 142.078 228.331 140.613 226.887C139.4 225.693 142.324 212.322 144.258 210.216C146.816 207.431 148.019 208.073 149.934 213.248ZM315.301 217.022C312.974 217.82 311.395 219.126 311.168 220.441C310.965 221.611 309.38 227.002 307.645 232.421C305.911 237.84 304.491 243.644 304.491 245.322C304.491 249.283 306.845 251.299 309.707 249.79C311.793 248.69 312.629 246.103 315.32 232.409C316.642 225.673 318.529 223.101 322.144 223.101C324.743 223.101 329.317 225.803 330.801 228.217C331.525 229.394 331.924 229.439 332.564 228.419C334.203 225.806 360.638 230.922 360.638 233.854C360.638 234.375 363.463 234.802 366.914 234.802C370.999 234.802 376.445 235.886 382.514 237.907C387.642 239.614 395.586 241.607 400.169 242.335C404.751 243.064 409.272 244.419 410.216 245.347C411.365 246.477 413.969 247.053 418.104 247.09C421.498 247.121 424.524 247.39 424.827 247.688C425.556 248.407 418.614 276.143 416.938 279.212C416.115 280.719 414.623 281.606 412.913 281.606C410.838 281.606 409.83 282.47 408.643 285.269C406.836 289.527 407.55 292.992 409.846 291.114C412.301 289.107 413.53 290.878 412.306 294.66C410.091 301.511 410.15 301.438 409.081 298.7C408.187 296.407 407.89 296.295 406.461 297.703C405.054 299.09 405.039 300.023 406.348 305.064C408.028 311.529 407.351 315.422 403.702 320.291C402.35 322.095 401.85 323.618 402.479 324.014C403.789 324.843 398.723 345.196 395.691 351.28C393.084 356.511 391.833 356.642 390.59 351.812C388.819 344.922 384.393 343.346 384.393 349.604C384.393 351.246 383.385 353.85 382.154 355.391C380.299 357.714 380.207 358.194 381.614 358.194C383.601 358.194 383.696 358.691 382.23 361.391C380.521 364.537 382.596 364.721 386.945 361.809C389.488 360.107 391.708 359.376 393.056 359.797C395.067 360.427 395.026 360.638 392.211 364.114C390.584 366.123 388.584 367.768 387.769 367.768C386.953 367.768 381.122 366.062 374.812 363.977C361.089 359.443 340.98 355.003 334.169 355.003C330.594 355.003 329.07 355.483 328.571 356.765C327.005 360.785 338.709 365.883 356.319 368.85C362.555 369.899 370.815 371.57 374.675 372.561C388.87 376.206 395.78 374.877 398.824 367.91C401.125 362.647 419.153 301.583 433.566 250.239C436.295 240.516 432.635 238.18 405.448 232.291C385.926 228.063 382.328 227.579 380.176 228.888C379.195 229.486 378.907 229.418 379.361 228.695C379.746 228.081 379.295 227.288 378.359 226.935C375.664 225.916 372.731 226.184 372.29 227.49C372.023 228.28 370.332 227.908 367.326 226.397C364.819 225.137 358.28 222.956 352.795 221.55C333.425 216.584 320.966 215.079 315.301 217.022ZM344.476 232.345C344.457 234.212 343.955 236.037 343.359 236.399C341.851 237.316 344.067 241.184 346.099 241.184C348.228 241.184 348.226 233.791 346.096 231.016C344.594 229.061 344.509 229.131 344.476 232.345ZM252.118 236.936C251.298 238.244 254.269 239.518 255.867 238.546C256.5 238.161 256.738 237.4 256.395 236.856C255.571 235.542 252.962 235.591 252.118 236.936ZM323.881 238.076C323.22 239.292 322.93 240.928 323.235 241.71C323.54 242.494 323.092 243.4 322.239 243.722C318.936 244.971 320.663 246.784 324.562 246.161C329.873 245.312 331.948 243.548 330.148 241.412C329.399 240.521 328.938 238.91 329.123 237.829C329.602 235.046 325.42 235.243 323.881 238.076ZM505.573 241.148C509.793 244.418 511.348 250.136 513.964 272.004C515.37 283.75 515.347 316.681 513.924 330.69C509.335 375.857 491.291 445.028 468.592 504.457C455.203 539.51 455.151 539.621 452.227 539.192C450.847 538.989 444.859 538.75 438.92 538.66C428.597 538.504 427.833 538.651 421.536 542.016C417.914 543.953 409.982 549.351 403.909 554.012C397.837 558.673 388.93 564.438 384.116 566.823C369.753 573.937 359.558 581.979 359.558 586.195C359.558 589.979 350.776 594.342 343.158 594.342C327.961 594.342 316.423 581.008 320.664 568.348C321.701 565.256 323.045 564.116 328.854 561.413C332.677 559.634 335.789 557.818 335.769 557.379C335.751 556.939 335.054 555.695 334.222 554.612C332.899 552.892 332.231 552.8 328.899 553.883C326.803 554.565 322.418 557.071 319.155 559.453C309.594 566.432 304.999 574.896 305.126 585.3C305.351 603.807 319.661 614.591 342.135 613.188C358.109 612.192 367.469 607.107 367.484 599.417C367.49 596.209 367.736 596.457 370.645 602.6L373.799 609.262L371.268 611.4C360.618 620.393 338.816 623.75 323.68 618.726C315.822 616.118 306.447 610.244 303.386 606.008C300.19 601.587 298.012 594.756 298.013 589.155C298.014 583.115 300.802 569.564 302.844 565.673C304.565 562.395 310.399 557.085 317.78 552.081C320.567 550.191 322.847 547.901 322.847 546.99C322.847 545.646 323.266 545.556 325.088 546.518C327.185 547.623 327.244 547.54 326.015 545.226C325.291 543.865 323.838 541.538 322.784 540.053C320.166 536.365 307.123 526.362 308.056 528.758C308.522 529.954 306.994 529.194 303.889 526.688C300.74 524.147 299.432 522.458 300.234 521.97C301.136 521.421 301.151 521.01 300.287 520.483C299.63 520.083 299.092 518.884 299.092 517.82C299.092 516.672 297.773 515.346 295.847 514.56C294.064 513.833 291.157 511.5 289.388 509.379C283.427 502.227 282.902 501.798 280.133 501.798C278.613 501.798 275.577 500.383 273.384 498.653C263.031 490.487 234.478 480.824 224.576 482.136L219.704 482.78L220.092 477.975C220.306 475.332 219.494 468.482 218.288 462.751C215.185 448.012 214.223 421.323 216.521 413.724C218.431 407.404 222.638 403.945 228.42 403.939L231.711 403.935L232.948 413.595C234.424 425.116 238.853 435.409 243.836 438.905C250.532 443.602 269.726 450.794 289.914 456.17C296.447 457.91 305.799 460.526 310.699 461.984C319.294 464.543 319.607 464.748 319.607 467.846C319.607 469.61 318.837 472.522 317.897 474.313C315.369 479.13 314.632 488.236 316.638 489.876C318.925 491.745 319.917 490.179 323.231 479.459C326.896 467.602 333.661 454.582 336.411 454.095C339.574 453.533 340.918 451.881 339.108 450.778C337.893 450.039 339.207 447.7 345.395 439.589C353.844 428.515 355.773 427.589 357.799 433.626C358.47 435.624 359.747 437.41 360.638 437.596C361.529 437.784 363.715 438.22 365.497 438.566C367.279 438.914 369.84 439.727 371.187 440.373C374.877 442.141 376.625 439.973 374.313 436.497C372.835 434.273 371.956 433.942 368.858 434.437C365.922 434.907 364.934 434.602 364.036 432.947C363.139 431.296 363.467 430.051 365.621 426.928C367.114 424.762 368.17 422.173 367.966 421.174C367.687 419.8 367.088 420.199 365.504 422.816C363.39 426.307 360.345 427.324 358.9 425.021C358.029 423.632 360.926 420.984 374.071 411.153C381.26 405.776 382.959 404.932 384.584 405.933C387.453 407.698 388.405 407.41 389.132 404.558C390.642 398.63 401.21 392.832 427.184 383.685C446.007 377.057 449.178 375.68 449.178 374.133C449.178 372.476 444.149 371.753 441.679 373.055C440.414 373.723 438.426 373.97 437.263 373.607C432.571 372.14 433.422 365.127 440.745 344.898C443.074 338.462 447.595 323.087 450.791 310.731C460.006 275.101 462.841 269.306 479.285 252.494C491.706 239.794 499.49 236.434 505.573 241.148ZM333.085 245.47C331.574 247.827 330.052 251.169 329.7 252.899C329.349 254.627 328.686 255.812 328.227 255.534C327.281 254.957 325.743 258.221 326.574 259.04C326.871 259.331 327.768 259.035 328.569 258.38C329.644 257.502 330.347 257.508 331.257 258.405C332.179 259.313 333.018 258.403 334.596 254.773C335.756 252.108 337.231 249.608 337.874 249.216C338.517 248.825 339.043 246.858 339.043 244.844C339.043 239.811 336.542 240.073 333.085 245.47ZM237.651 246.91C236.691 248.049 236.803 248.53 238.146 249.037C241.029 250.128 241.865 249.797 241.865 247.566C241.865 245.12 239.473 244.747 237.651 246.91ZM320.887 249.428C321.111 250.596 322.444 251.423 324.46 251.65C327.657 252.008 327.663 251.999 325.633 249.788C323.138 247.073 320.393 246.864 320.887 249.428ZM347.141 250.929C344.202 252.597 339.221 258.102 338.431 260.556C337.739 262.704 340.511 267.777 342.378 267.777C344.653 267.777 347.681 265.526 347.681 263.835C347.681 262.878 346.905 261.249 345.956 260.216C343.855 257.929 344.801 256.076 348.069 256.076C349.4 256.076 351.02 255.553 351.668 254.913C352.521 254.073 353.458 254.073 355.052 254.913C358.267 256.609 358.659 256.394 358.28 253.151C357.978 250.556 357.451 250.196 353.62 249.965C351.244 249.821 348.329 250.255 347.141 250.929ZM403.217 252.254C402.859 253.663 403.137 255.868 403.836 257.154C404.839 259.001 405.754 259.366 408.179 258.889C410.9 258.353 411.289 258.613 411.588 261.169C411.788 262.877 412.587 264.054 413.546 264.054C415.671 264.054 420.599 254.832 419.703 252.531C418.869 250.391 414.626 250.147 414.626 252.239C414.626 253.475 412.482 255.012 410.758 255.012C410.51 255.012 410.307 253.816 410.307 252.353C410.307 250.111 409.801 249.694 407.088 249.694C404.588 249.694 403.723 250.266 403.217 252.254ZM370.441 253.683C370.395 254.415 369.384 255.012 368.196 255.012C366.997 255.012 366.037 255.722 366.037 256.608C366.037 257.486 366.706 258.204 367.525 258.204C369.544 258.204 371.768 255.4 371.082 253.719C370.654 252.665 370.507 252.656 370.441 253.683ZM395.663 258.311C395.258 258.955 395.932 260.471 397.16 261.681C399.072 263.565 399.643 263.673 401.154 262.438C402.761 261.124 402.696 260.829 400.403 259.092C397.454 256.858 396.656 256.726 395.663 258.311ZM403.307 273.131C404.967 276.293 407.067 276.557 407.067 273.602C407.067 272.28 403.974 269.905 402.252 269.905C401.901 269.905 402.375 271.357 403.307 273.131ZM396.713 284.305C394.914 287.594 394.859 288.195 396.272 289.076C400.773 291.878 402.728 289.332 400.988 282.935C400.086 279.616 399.103 279.931 396.713 284.305ZM374.157 294.304C373.272 297.048 374.269 298.713 376.329 297.933C378.34 297.173 378.367 295 376.385 293.381C375.165 292.383 374.715 292.57 374.157 294.304ZM398.159 294.341C394.709 297.027 394.161 300.753 397.218 300.753C400.048 300.753 401.888 298.207 401.477 294.86L401.129 292.029L398.159 294.341ZM357.346 300.168C354.786 302.687 356.73 308.199 360.179 308.199C361.86 308.199 363.262 309.195 364.296 311.124L365.864 314.049L366.863 311.39C367.412 309.927 367.816 306.577 367.759 303.944L367.656 299.157H363.015C360.462 299.157 357.911 299.612 357.346 300.168ZM216.491 306.071C216.102 306.691 217.179 307.135 219.063 307.135C220.844 307.135 222.602 306.656 222.969 306.071C223.358 305.452 222.282 305.008 220.397 305.008C218.616 305.008 216.858 305.486 216.491 306.071ZM386.131 311.844C386.898 313.811 390.183 314.144 389.521 312.188C389.275 311.457 388.265 310.704 387.277 310.515C386.024 310.275 385.678 310.678 386.131 311.844ZM362.193 321.301C361.377 323.374 362.98 325.707 364.785 325.073C365.474 324.83 365.338 323.7 364.418 322.027C363.099 319.633 362.879 319.561 362.193 321.301ZM225.669 325.131C225.669 326.254 225.98 327.969 226.359 328.944C226.909 330.357 227.233 330.429 227.962 329.297C229.476 326.944 229.057 323.091 227.288 323.091C226.398 323.091 225.669 324.009 225.669 325.131ZM233.227 326.447C233.227 328.673 233.291 328.683 235.387 326.814C236.574 325.756 237.546 324.724 237.546 324.522C237.546 324.32 236.574 324.155 235.387 324.155C233.895 324.155 233.227 324.864 233.227 326.447ZM203.871 358.472C204.12 359.748 203.538 360.322 201.993 360.322C200.448 360.322 199.755 359.639 199.755 358.117C199.755 355.39 203.329 355.7 203.871 358.472ZM100.693 371.992C93.9257 375.018 88.311 379.867 84.7121 385.792C80.9373 392.008 79.8878 392.563 63.5975 396.968C47.8947 401.214 41.9971 404.488 38.9748 410.638C30.5106 427.863 46.762 449.441 75.0807 458.577C82.4177 460.944 97.5742 463.502 104.196 463.492C121.848 463.462 133.373 448.004 137.771 418.457C141.465 393.645 136.77 378.99 122.865 371.929C117.483 369.196 106.877 369.226 100.693 371.992ZM124.82 380.636C130.755 386.302 134.989 404.392 132.904 415.173C130.344 428.411 118.908 451.458 113.695 453.885C108.801 456.165 95.4039 456.512 86.0305 454.602C69.9724 451.33 53.3723 442.463 47.4995 434.019C44.5129 429.726 43.4526 421.211 45.3443 416.712C46.9855 412.808 47.7921 412.712 49.6817 416.192C51.4751 419.493 53.3334 419.084 53.7891 415.288C54.0946 412.744 53.7772 412.444 50.7819 412.444C47.8104 412.444 47.5589 412.214 48.5468 410.395C49.9127 407.881 60.2697 403.851 67.2147 403.131C72.0898 402.626 72.3436 402.729 72.3436 405.217C72.3436 408.539 73.3682 409.56 75.1995 408.061C75.9888 407.416 77.4022 407.178 78.3394 407.532C79.6287 408.019 79.8856 407.688 79.3976 406.172C78.9063 404.647 79.4915 403.913 81.84 403.106C84.0805 402.337 85.7584 400.374 87.9514 395.958C93.1072 385.577 99.7704 379.625 109.36 376.836C115.301 375.108 120.322 376.341 124.82 380.636ZM312.788 403.348C307.407 405.239 304.633 407.762 302.203 412.976C299.582 418.599 299.663 424.183 302.461 430.588C306.148 439.032 313.486 442.175 320.809 438.443C325.105 436.255 324.342 434.658 317.898 432.351C311.082 429.911 308.81 427.225 308.81 421.605C308.81 411.877 316.086 407.041 325.546 410.481C328.515 411.56 331.553 412.443 332.294 412.443C334.905 412.444 333.599 409.461 329.322 405.654C324.488 401.352 320.181 400.751 312.788 403.348ZM116.131 404.201C115.903 404.932 115.465 407.965 115.157 410.941C114.849 413.918 112.795 420.99 110.594 426.658C108.391 432.326 106.902 437.271 107.284 437.647C108.6 438.943 113.103 435.624 115.289 431.75C118.777 425.564 123.306 407.379 121.97 404.92C120.726 402.63 116.772 402.143 116.131 404.201ZM423.678 405.644C423.211 407.48 423.478 408.733 424.468 409.351C427.411 411.188 428.663 410.366 428.663 406.594C428.663 403.592 428.248 402.871 426.524 402.871C425.119 402.871 424.142 403.823 423.678 405.644ZM388.915 415.703C389.174 416.47 390.025 417.308 390.804 417.564C391.614 417.83 392.019 417.431 391.749 416.633C391.489 415.865 390.638 415.027 389.859 414.772C389.05 414.506 388.645 414.905 388.915 415.703ZM373.865 421.658C372.211 422.317 372.095 424.827 373.675 425.79C375.405 426.843 381.153 427.057 381.153 426.068C381.153 424.939 377.065 420.93 376.025 421.038C375.579 421.084 374.608 421.364 373.865 421.658ZM73.9632 424.145C73.5961 424.73 72.1103 425.209 70.6602 425.209C68.4035 425.209 68.0267 425.706 68.0407 428.666C68.0656 433.764 69.6096 435.7 71.2476 432.686C72.2788 430.787 73.1739 430.426 75.6401 430.912C79.5164 431.676 80.486 430.23 78.7951 426.209C77.4843 423.09 75.2287 422.128 73.9632 424.145ZM53.7556 426.007C52.8507 427.03 52.3152 428.423 52.5657 429.1C52.8173 429.778 52.5203 430.638 51.907 431.012C50.4882 431.876 52.854 435.846 54.7878 435.846C56.4636 435.846 56.5424 437.159 54.9584 438.72C54.0935 439.572 54.4391 440.099 56.2261 440.658C58.9773 441.518 62.0211 438.602 61.0299 436.056C60.72 435.26 60.4663 432.254 60.4663 429.377C60.4663 424.598 60.2471 424.145 57.9342 424.145C56.5413 424.145 54.6615 424.984 53.7556 426.007ZM410.037 425.818C407.002 427.44 406.318 429.842 408.102 432.619C408.905 433.871 409.323 433.608 410.218 431.289C411.68 427.5 412.896 427.645 415.582 431.928C416.799 433.867 418.773 436.326 419.967 437.391C422.067 439.263 422.164 439.263 422.895 437.389C423.406 436.074 423.009 435.086 421.661 434.319C417.848 432.147 415.706 429.445 415.706 426.805C415.706 423.783 414.302 423.538 410.037 425.818ZM553.555 428.046C552.353 429.23 552.744 433.246 554.454 437.278C557.003 443.289 556.53 445.008 551.361 448.512C541.199 455.4 540.264 467.167 549.229 475.341C554.004 479.694 556.448 480.523 564.515 480.523C571.879 480.523 572.09 480.601 575.86 484.712C582.396 491.839 584.185 503.011 578.908 503.748C574.885 504.308 571.519 503.082 567.467 499.577C560.852 493.854 555.809 497.286 559.764 504.82C561.845 508.784 567.471 510.926 579.828 512.456C587.193 513.368 589.37 514.056 590.849 515.939C591.863 517.229 593.723 519.602 594.98 521.211C599.83 527.411 605.276 522.739 602.054 515.143C599.64 509.452 599.895 506.866 603.583 499.67C607.513 492.001 607.66 487.399 604.19 480.653C600.856 474.174 597.849 472.259 589.083 471.036C585.222 470.497 581.567 469.755 580.962 469.387C579.103 468.254 571.197 454.229 570.51 450.843C569.938 448.026 570.208 447.563 572.796 446.924C574.41 446.525 579.082 446.505 583.178 446.881C590.499 447.551 590.626 447.52 590.626 445.025C590.626 440.573 587.997 439.57 576.329 439.57C564.465 439.57 566.091 440.388 558.421 430.555C555.875 427.293 554.853 426.765 553.555 428.046ZM363.808 440.33C363.77 440.497 363.649 442.925 363.538 445.726C363.359 450.265 363.572 450.785 365.497 450.513C366.833 450.324 367.656 449.395 367.656 448.079C367.656 446.909 368.083 445.647 368.604 445.273C369.126 444.9 369.221 444.065 368.814 443.417C368.099 442.278 363.947 439.717 363.808 440.33ZM342.498 449.888C338.875 453.458 342.488 459.58 347.623 458.569C350.139 458.073 351.066 458.478 352.564 460.731C354.768 464.046 356.902 464.279 358.479 461.376C359.115 460.206 360.346 459.249 361.216 459.249C362.249 459.249 362.798 458.155 362.798 456.095C362.798 451.683 359.601 450.112 355.195 452.357C350.533 454.732 346.923 453.34 347.554 449.409C347.759 448.127 343.916 448.491 342.498 449.888ZM563.617 457.351C565.55 459.394 569.031 468.346 569.031 471.271C569.031 473.09 556.327 471.506 553.954 469.39C551.083 466.83 551.101 461.417 553.993 457.797C556.744 454.35 560.61 454.17 563.617 457.351ZM334.233 469.736C333.396 472.331 334.566 475.204 336.459 475.204C337.458 475.204 337.963 473.955 337.963 471.481C337.963 467.414 335.371 466.201 334.233 469.736ZM343.854 477.397C344.422 480.34 342.662 487.98 341.422 487.953C339.746 487.917 338.041 486.18 336.977 483.427C335.416 479.38 331.88 479.513 331.265 483.641C330.899 486.099 331.273 486.894 333.032 487.392C335.126 487.985 335.076 488.127 332.23 489.661C329.878 490.927 329.27 491.939 329.53 494.154C329.807 496.516 330.473 497.068 333.374 497.344C337.157 497.703 337.888 496.497 335.213 494.31C333.11 492.59 334.927 491.201 339.313 491.176C343.02 491.156 343.024 492.207 339.343 498.656C337.727 501.49 336.822 504.193 337.332 504.664C337.841 505.136 338.476 504.923 338.741 504.191C339.006 503.46 340.315 502.861 341.649 502.861C345.512 502.861 348.156 495.533 347.821 485.758C347.655 480.919 347.676 480.891 350.907 481.358C352.77 481.627 354.159 481.349 354.159 480.707C354.159 479.14 353.11 478.662 348.761 478.242C346.682 478.042 344.61 477.157 344.156 476.276C343.652 475.299 343.535 475.737 343.854 477.397ZM594.271 482.513C596.161 484.456 597.276 486.801 597.339 488.96C597.447 492.695 594.811 496.116 592.778 494.879C591.138 493.88 586.332 483.794 586.318 481.321C586.3 478.367 590.912 479.058 594.271 482.513ZM351.827 497.247C349.384 498.425 349.073 499.067 349.745 501.545C350.953 505.992 353.887 505.902 354.747 501.389C355.708 496.342 355.2 495.622 351.827 497.247ZM230.467 507.558C236.072 510.793 241.221 517.761 242.337 523.619C243.793 531.269 238.536 541.315 229.821 547.534C226.192 550.125 224.266 550.729 219.645 550.729C211.021 550.729 207.26 545.696 206.531 533.178C206.048 524.866 207.872 519.95 212.712 516.527C218.726 512.272 229.82 518.688 228.469 525.639C227.753 529.322 223.334 533.71 220.342 533.71C215.541 533.71 214.66 525.611 219.331 524.408C221.011 523.975 221.191 523.628 220.092 522.941C214.875 519.684 211.874 524.298 213.713 532.745C215.983 543.179 220.714 544.973 227.729 538.062C230.903 534.935 232.277 532.457 233.279 528.045C234.48 522.761 234.406 521.841 232.531 518.677C226.42 508.37 209.074 508.051 201.488 518.106C199.476 520.771 199.227 522.488 199.321 533.029C199.443 546.754 200.903 551.034 207.043 555.647C214.771 561.454 224.939 562.894 235.186 559.634C245.804 556.255 251.996 548.706 253.332 537.511C254.521 527.548 259.141 531.039 259.141 541.899C259.141 556.965 248.824 568.078 232.106 571.021C225.727 572.144 223.632 572.079 217.343 570.564C204.176 567.392 193.061 557.478 189.927 546.109C188.14 539.629 189.29 525.576 192.123 519.262C197.175 508.008 204.469 503.628 217.157 504.23C223.732 504.542 226.401 505.21 230.467 507.558ZM461.055 539.446C461.055 539.676 460.302 540.149 459.379 540.498C458.418 540.861 457.985 540.682 458.363 540.08C458.997 539.069 461.055 538.585 461.055 539.446ZM91.7791 560.077C89.1791 560.866 84.2187 565.87 84.2403 567.682C84.2511 568.597 85.7044 571.444 87.4698 574.011C95.609 585.843 94.1837 599.629 83.6259 611.198C74.5268 621.168 65.4871 625.223 52.1338 625.324C44.1458 625.384 45.0106 625.964 33.8935 613.115C30.3692 609.042 29.5453 608.685 27.1375 610.188C22.2084 613.265 37.8886 631.04 51.1512 637.409C64.4495 643.796 79.1179 644.427 88.0356 638.997C93.3696 635.749 99.2705 628.796 102.166 622.344C107.744 609.918 107.86 587.328 102.43 570.94C99.3417 561.623 96.4394 558.663 91.7791 560.077ZM328.875 568.097C325.576 571.345 325.453 573.187 328.142 579.019C332.151 587.716 342.663 590.877 350.374 585.703C355.611 582.19 355.434 579.07 349.84 576.259C346.766 574.713 345.517 573.405 345.505 571.717C345.477 567.79 344.105 566.789 337.741 566.053C332.164 565.408 331.433 565.576 328.875 568.097ZM70.3968 573.679L67.9684 575.355L70.6958 578.548C72.1956 580.304 73.4233 582.437 73.4233 583.289C73.4233 589.415 63.6181 600.041 58.5022 599.459C56.2196 599.198 55.5329 598.486 55.2543 596.091C55.0319 594.174 55.3191 593.306 56.0328 593.74C57.5488 594.663 63.2736 591.666 64.1147 589.508C65.1869 586.754 64.8889 580.514 63.6839 580.514C61.2858 580.514 54.1141 586.043 46.0353 594.121L37.5441 602.613L38.8312 606.456C40.5599 611.615 45.6671 616.443 50.3014 617.3C60.9262 619.263 75.6044 612.164 82.2535 601.846C86.2659 595.62 86.4192 587.711 82.68 579.801C79.1179 572.262 75.2459 570.333 70.3968 573.679ZM156.487 595.018C159.838 599.215 161.409 605.216 159.889 608.014C157.287 612.803 151.674 609.949 150.784 603.384C150.468 601.044 149.883 597.574 149.484 595.672C148.819 592.491 148.98 592.215 151.505 592.215C153.183 592.215 155.118 593.304 156.487 595.018ZM131.514 604.129C133.481 606.067 133.065 608.171 130.714 608.171C128.229 608.171 126.985 606.546 127.821 604.397C128.553 602.518 129.789 602.429 131.514 604.129ZM278.229 609.187C284.362 611.788 285.789 613.678 283.401 616.031C279.759 619.619 270.872 619.078 257.171 614.434C251.604 612.548 249.482 611.037 249.439 608.934C249.367 605.287 269.453 605.462 278.229 609.187ZM204.973 631.62C211.117 634.297 214.443 637.259 217.156 642.473C225.621 658.735 213.317 683.407 193.185 690.538C182.228 694.42 166.046 691.143 157.819 683.375C151.786 677.679 149.596 672.493 149.614 663.954C149.649 647.753 161.08 634.335 178.699 629.812C185.914 627.96 198.573 628.831 204.973 631.62ZM178.783 636.463C171.016 638.894 160.617 649.363 158.286 657.097C156.145 664.195 156.121 667.498 158.171 672.333C161.104 679.246 170.764 684.244 179.779 683.514L184.098 683.164L180.319 680.957C169.093 674.405 165.262 657.617 172.488 646.638C178.532 637.456 187.64 637.434 196.933 646.579C202.054 651.619 202.189 651.911 201.541 656.582C200.636 663.08 198.213 667.37 194.328 669.349C190.704 671.196 187.668 670.266 185.743 666.722C183.88 663.293 184.417 655.48 186.705 652.699C189.253 649.603 190.48 650.499 188.987 654.364C187.264 658.83 187.67 662.97 190.037 665.08C192.092 666.913 192.297 666.916 194.277 665.15C198.723 661.186 197.914 648.296 193.005 644.909C187.838 641.344 179.064 643.739 176.064 649.533C171.165 658.992 172.764 668.179 180.029 672.31C188.791 677.293 205.73 673 210.88 664.491C212.996 660.998 213.294 659.445 212.711 654.967C210.815 640.408 194.538 631.53 178.783 636.463ZM85.225 658.609C86.2411 659.814 86.0348 660.258 84.196 660.833C81.4513 661.691 80.4838 660.98 81.3541 658.744C82.151 656.697 83.573 656.648 85.225 658.609ZM345.598 660.98C351.063 663.134 356.758 669.666 358.493 675.766C361.654 686.891 357.868 702.279 350.211 709.435C339.156 719.764 321.026 716.276 316.513 702.95C313.491 694.024 315.839 682.259 321.898 675.986C325.743 672.003 326.343 671.749 330.553 672.305C336.31 673.066 340.262 675.976 342.141 680.838C345.039 688.341 340.951 696.245 334.97 694.704C331.6 693.836 331.863 690.287 335.394 688.965C337.867 688.039 338.138 687.481 337.541 684.54C336.702 680.408 334.002 677.313 331.234 677.313C328.079 677.313 323.1 682.88 322.246 687.361C321.248 692.604 323.199 698.761 327.327 703.393C334.043 710.928 343.168 707.153 349.79 694.097C354.612 684.59 353.993 678.991 347.374 672.232C339.001 663.679 319.999 663.583 309.619 672.042C303.081 677.369 299.914 683.735 299.328 692.731C298.673 702.785 301.943 710.584 308.893 715.545C321.228 724.347 336.373 723.945 350.836 714.43C357.915 709.774 361.322 709.52 360.084 713.741C358.836 717.997 355.732 721.381 349.878 724.869C339.638 730.971 327.247 731.893 310.681 727.788C302.566 725.777 300.049 723.585 294.984 714.126C292.386 709.274 292.075 707.554 292.075 698.033C292.074 688.194 292.339 686.844 295.521 680.482C301.066 669.398 309.893 661.867 320.4 659.257C325.862 657.9 340.288 658.886 345.598 660.98ZM618.573 676.955C621.053 678.551 621.113 678.89 620.197 686.206C619.674 690.383 619.248 699.066 619.249 705.502C619.251 716.183 619.529 717.806 622.435 724.117C624.462 728.519 628.308 733.897 633.021 738.919C642.19 748.689 643.068 750.354 644.536 760.748C645.184 765.342 646.471 771.974 647.395 775.488C649.722 784.334 648.647 785.369 638.718 783.847C634.218 783.156 630.505 783.106 628.883 783.714C624.948 785.188 623.481 784.159 616.343 774.921C612.733 770.249 607.656 764.953 605.061 763.151C602.466 761.349 600.344 759.474 600.344 758.985C600.344 758.496 601.753 755.345 603.476 751.983C610.069 739.117 610.072 732.694 603.491 718.973C601.707 715.254 599.957 710.701 599.602 708.857C598.156 701.352 590.143 690.126 582.062 684.281C579.052 682.104 576.517 679.885 576.427 679.35C575.85 675.883 576.263 675.704 586.307 675.058C601.091 674.107 615.464 674.952 618.573 676.955ZM186.304 682.558C185.141 684.41 188.077 685.019 189.832 683.289C191.442 681.703 191.396 681.568 189.252 681.568C187.972 681.568 186.645 682.014 186.304 682.558ZM574.278 684.152C580.04 687.028 591.338 698.372 592.334 702.28C593.999 708.815 591.32 710.39 583.062 707.728C578.886 706.383 575.212 706.182 564.832 706.732C550.605 707.486 548.515 706.885 548.515 702.044C548.515 698.873 553.815 689.419 558.162 684.834C562.062 680.721 566.99 680.513 574.278 684.152ZM400.591 691.68C401.221 693.309 400.856 697.432 399.511 703.897C397.551 713.323 395.171 718.799 393.034 718.799C391.351 718.799 388.712 712.787 388.712 708.953C388.712 704.144 392.612 693.05 395.302 690.204C397.734 687.632 399.186 688.038 400.591 691.68ZM70.3471 698.264C77.9075 701.544 82.5548 706.019 81.5711 709.071C80.3251 712.939 77.3698 712.657 68.4618 707.813C59.0788 702.712 55.7909 698.914 58.242 696.006C59.88 694.06 61.2469 694.316 70.3471 698.264ZM434.19 703.414C436.274 708.053 437.198 716.063 435.809 717.432C435.441 717.793 435.141 716.322 435.141 714.163C435.141 712.002 434.206 707.614 433.064 704.412C430.545 697.352 431.205 696.767 434.19 703.414ZM253.699 711.189C256.348 712.704 260.6 715.912 263.147 718.317C271.194 725.913 268.435 729.515 258.406 724.504C247.925 719.268 240.538 710.888 243.677 707.795C244.683 706.804 247.997 707.926 253.699 711.189ZM579.735 711.378C587.496 712.37 591.706 714.427 591.706 717.224C591.706 725.526 553.38 740.66 544.378 735.914C538.784 732.964 544.737 717.762 553.252 713.254C558.814 710.31 566.901 709.737 579.735 711.378ZM601.887 726.239C606.728 734.407 603.094 749.672 595.231 754.196C592.099 755.999 590.992 756.049 581.129 754.837C572.583 753.786 567.733 753.791 557.042 754.863C536.108 756.963 538.208 757.309 538.571 751.832C539.085 744.079 540.673 743.104 556.997 740.52C574.581 737.738 578.864 735.981 589.939 727.01C593.421 724.188 597.038 722.026 597.979 722.205C598.918 722.382 600.677 724.198 601.887 726.239ZM168.437 733.154C169.968 734.971 169.819 735.601 165.268 746.456C161.476 755.503 156.305 761.216 153.78 759.15C150.331 756.331 153.376 746.88 161.208 736.084C164.71 731.259 166.298 730.614 168.437 733.154ZM76.9358 747.784C89.7978 753.606 99.6322 766.154 101.454 779.072C103.778 795.565 96.2428 809.824 81.5215 816.787C69.7478 822.356 54.8472 820.51 41.5889 811.841C34.0133 806.886 30.7622 803.042 26.2413 793.689C20.8274 782.488 20.5628 779.274 24.6778 774.658C28.5422 770.321 31.5105 765.088 30.6078 764.199C30.2677 763.864 28.5919 764.607 26.8848 765.85C19.6623 771.111 23.5084 762.656 31.7361 755.184C40.6981 747.047 48.6959 744.224 61.546 744.661C68.7199 744.906 72.0801 745.588 76.9358 747.784ZM414.544 751.334C411.489 754.545 399.79 763.093 393.571 766.659C387.352 770.223 390.11 767.869 399.66 761.462C404.196 758.417 409.784 754.294 412.078 752.299C417.056 747.966 418.16 747.534 414.544 751.334ZM47.859 752.241C42.1709 753.994 36.1113 757.656 34.0112 760.608C31.3302 764.379 32.1367 764.703 37.5215 762.016C54.33 753.63 68.275 754.319 76.316 763.929C82.3971 771.197 83.8624 782.539 79.7917 790.826C77.0934 796.315 73.1912 798.578 66.4243 798.578C55.7801 798.578 50.2853 793.709 50.2853 784.275C50.2853 771.326 64.552 764.106 70.5091 774.041C72.7884 777.843 72.8327 780.327 70.6624 782.689C68.5342 785.006 64.321 784.202 65.4029 781.685C65.81 780.737 66.3801 778.885 66.6694 777.57C67.1391 775.436 66.7763 775.176 63.3168 775.176C59 775.176 56.6785 777.611 55.5102 783.365C54.5319 788.185 57.8738 791.132 64.3167 791.132C70.3633 791.132 72.9126 789.872 75.0321 785.835C78.0706 780.045 77.2025 775.938 71.9268 771.147C69.3224 768.782 65.8002 766.153 64.0985 765.303C52.665 759.597 39.1163 764.223 33.4422 775.771C27.7583 787.337 36.0757 800.786 54.1076 809.19C68.3873 815.845 80.8261 811.57 88.5636 797.348C91.7932 791.411 92.2359 789.642 92.2542 782.622C92.2726 775.671 91.832 773.823 88.8271 768.262C84.7726 760.755 82.5688 758.011 78.6202 755.552C71.4538 751.088 56.7433 749.505 47.859 752.241ZM580.894 757.969C588.857 759.151 587.834 761.284 575.832 768.523C559.556 778.339 553.352 781.599 542.705 785.925C531.353 790.539 529.83 790.204 530.777 783.296C532.741 768.984 534.656 764.572 540.157 761.68C546.877 758.147 568.697 756.16 580.894 757.969ZM187.493 768.247C186.517 770.753 184.638 769.171 184.638 765.844C184.638 763.228 184.769 763.149 186.406 764.76C187.403 765.743 187.876 767.261 187.493 768.247ZM602.576 765.344C605.673 767.414 611.92 774.231 614.642 778.509C617.752 783.398 614.14 785.784 597.158 790.055C592.184 791.307 586.127 793.328 583.701 794.547C575.712 798.559 564.163 807.734 556.155 816.43C551.82 821.136 547.395 825.212 546.319 825.49C540.536 826.979 532.523 815.882 531.544 805.028C530.786 796.635 533.053 794.098 544.375 790.673C553.244 787.99 577.492 775.274 588.358 767.608C594.775 763.081 598.344 762.513 602.576 765.344ZM318.898 767.182C320.616 768.876 322.403 775.869 323.528 785.302L324.223 791.132H321.036C318.42 791.132 317.496 790.416 315.889 787.143C313.385 782.046 312.315 769.446 314.197 767.212C315.897 765.194 316.872 765.188 318.898 767.182ZM220.743 779.311C209.593 782.12 198.699 791.852 195.834 801.561C193.84 808.318 194.271 818.474 196.613 819.935C198.886 821.353 209.213 821.127 210.147 819.638C210.588 818.936 210.981 816.146 211.021 813.439C211.122 806.522 215.153 801.55 223.004 798.657C230.181 796.011 235.993 795.856 241.823 798.154C246.395 799.956 250.503 805.124 250.503 809.075C250.503 810.626 251.179 811.343 252.642 811.343C255.625 811.343 256.479 807.067 255.029 799.385C252.458 785.763 244.859 779.212 231.067 778.726C227.207 778.59 222.561 778.854 220.743 779.311ZM335.804 792.728C334.319 793.564 332.133 794.229 330.945 794.204C329.53 794.177 330.09 793.667 332.564 792.728C337.56 790.832 339.169 790.832 335.804 792.728ZM674.972 806.851C677.712 810.353 680.759 815.544 681.742 818.386L683.53 823.554L676.946 817.182C668.427 808.94 664.419 803.967 662.334 799.049L660.65 795.078L665.319 797.781C667.887 799.267 672.23 803.348 674.972 806.851ZM224.72 803.528C217.771 807.015 214.694 815.993 219.347 819.203C221.994 821.03 227.857 820.372 229.232 818.093C229.749 817.235 232.022 816.662 234.901 816.662C243.2 816.662 246.485 811.089 241.531 805.415C238.292 801.705 230.17 800.793 224.72 803.528Z" fill="#050BAC"/>
</svg>
