<svg width="32" height="32" viewBox="0 0 32 32" fill="none" xmlns="http://www.w3.org/2000/svg">
<circle cx="16" cy="16" r="15.605" stroke="white" stroke-opacity="0.3" stroke-width="0.79"/>
<path d="M18.9995 10.0025L17.4434 10C15.6952 10 14.5654 11.1591 14.5654 12.9532V14.3148H13.0008C12.8656 14.3148 12.7561 14.4244 12.7561 14.5596V16.5324C12.7561 16.6676 12.8657 16.7771 13.0008 16.7771H14.5654V21.7552C14.5654 21.8904 14.6749 21.9999 14.8101 21.9999H16.8514C16.9866 21.9999 17.0961 21.8903 17.0961 21.7552V16.7771H18.9255C19.0607 16.7771 19.1702 16.6676 19.1702 16.5324L19.1709 14.5596C19.1709 14.4947 19.1451 14.4325 19.0993 14.3866C19.0535 14.3406 18.9911 14.3148 18.9261 14.3148H17.0961V13.1605C17.0961 12.6058 17.2283 12.3241 17.951 12.3241L18.9993 12.3237C19.1344 12.3237 19.2438 12.2141 19.2438 12.0791V10.2472C19.2438 10.1122 19.1345 10.0027 18.9995 10.0025Z" fill="white"/>
</svg>
