<svg width="25" height="25" viewBox="0 0 25 25" fill="none" xmlns="http://www.w3.org/2000/svg">
<g clip-path="url(#clip0_81_1088)">
<path d="M14.3277 13.6455L3.56982 24.4545C3.8553 24.5867 4.15905 24.6444 4.46233 24.6444C4.83687 24.6444 5.21047 24.5548 5.54891 24.3514L17.8518 17.1776L14.3277 13.6455Z" fill="#C62626"/>
<path d="M22.5213 10.8341C22.5255 10.8365 22.5302 10.8393 22.5344 10.8421C23.1696 11.2274 23.5488 11.9015 23.5488 12.6449C23.5488 13.3884 23.1696 14.0625 22.5344 14.4482L19.1083 16.4456L15.3198 12.6492L19.106 8.84521L22.5213 10.8341Z" fill="#F9A331"/>
<path d="M2.35205 2.79151C2.35205 2.46198 2.42518 2.14182 2.56112 1.854L13.334 12.6499L2.56299 23.472C2.42565 23.1903 2.35205 22.8748 2.35205 22.5439V2.79151Z" fill="#2F67FA"/>
<path d="M3.95068 1.24434C4.54398 0.940357 5.22425 0.973008 5.79504 1.33815L17.7507 7.84442L14.1507 11.4444L3.95068 1.24434Z" fill="#38D586"/>
</g>
<defs>
<clipPath id="clip0_81_1088">
<rect width="24" height="24" fill="white" transform="translate(0.950439 0.644531)"/>
</clipPath>
</defs>
</svg>
