<svg width="32" height="32" viewBox="0 0 32 32" fill="none" xmlns="http://www.w3.org/2000/svg">
<circle cx="16" cy="16" r="15.605" stroke="white" stroke-opacity="0.3" stroke-width="0.79"/>
<g clip-path="url(#clip0_102_460)">
<path d="M16.0019 12.9189C14.3004 12.9189 12.9229 14.2979 12.9229 15.9979C12.9229 17.6994 14.3019 19.0769 16.0019 19.0769C17.7034 19.0769 19.0809 17.6979 19.0809 15.9979C19.0809 14.2964 17.7019 12.9189 16.0019 12.9189ZM16.0019 17.9964C14.8974 17.9964 14.0034 17.1019 14.0034 15.9979C14.0034 14.8939 14.8979 13.9994 16.0019 13.9994C17.1059 13.9994 18.0004 14.8939 18.0004 15.9979C18.0009 17.1019 17.1064 17.9964 16.0019 17.9964Z" fill="white"/>
<path d="M18.4739 10.0382C17.3699 9.98668 14.6354 9.98918 13.5304 10.0382C12.5594 10.0837 11.7029 10.3182 11.0124 11.0087C9.85837 12.1627 10.0059 13.7177 10.0059 15.9982C10.0059 18.3322 9.87587 19.8512 11.0124 20.9877C12.1709 22.1457 13.7484 21.9942 16.0019 21.9942C18.3139 21.9942 19.1119 21.9957 19.9294 21.6792C21.0409 21.2477 21.8799 20.2542 21.9619 18.4697C22.0139 17.3652 22.0109 14.6312 21.9619 13.5262C21.8629 11.4197 20.7324 10.1422 18.4739 10.0382ZM20.2214 20.2242C19.4649 20.9807 18.4154 20.9132 15.9874 20.9132C13.4874 20.9132 12.4849 20.9502 11.7534 20.2167C10.9109 19.3782 11.0634 18.0317 11.0634 15.9902C11.0634 13.2277 10.7799 11.2382 13.5524 11.0962C14.1894 11.0737 14.3769 11.0662 15.9804 11.0662L16.0029 11.0812C18.6674 11.0812 20.7579 10.8022 20.8834 13.5742C20.9119 14.2067 20.9184 14.3967 20.9184 15.9977C20.9179 18.4687 20.9649 19.4772 20.2214 20.2242Z" fill="white"/>
<path d="M19.2029 13.5171C19.6003 13.5171 19.9224 13.195 19.9224 12.7976C19.9224 12.4003 19.6003 12.0781 19.2029 12.0781C18.8055 12.0781 18.4834 12.4003 18.4834 12.7976C18.4834 13.195 18.8055 13.5171 19.2029 13.5171Z" fill="white"/>
</g>
<defs>
<clipPath id="clip0_102_460">
<rect width="12" height="12" fill="white" transform="translate(10 10)"/>
</clipPath>
</defs>
</svg>
