<svg width="121" height="18" viewBox="0 0 121 18" fill="none" xmlns="http://www.w3.org/2000/svg">
<g opacity="0.4">
<path d="M3.99152 4.032C3.55952 4.464 3.01552 4.68 2.35952 4.68C1.70352 4.68 1.15952 4.464 0.727516 4.032C0.311516 3.6 0.103516 3.072 0.103516 2.448C0.103516 1.808 0.311516 1.272 0.727516 0.839999C1.15952 0.408 1.70352 0.192 2.35952 0.192C3.01552 0.192 3.55952 0.416 3.99152 0.864C4.42352 1.296 4.63952 1.824 4.63952 2.448C4.63952 3.072 4.42352 3.6 3.99152 4.032ZM0.511516 17.28V5.712H4.18352V17.28H0.511516Z" fill="white"/>
<path d="M20.5106 6.552C20.5106 7.768 20.2306 8.856 19.6706 9.816C19.1106 10.76 18.3426 11.472 17.3666 11.952L20.3186 17.28H15.9026L13.2626 12.624H11.2226V17.28H7.33464V0.48H14.4866C16.2306 0.48 17.6706 1.056 18.8066 2.208C19.9426 3.344 20.5106 4.792 20.5106 6.552ZM11.2226 3.648V9.456H13.8866C14.6706 9.456 15.3106 9.184 15.8066 8.64C16.3186 8.096 16.5746 7.4 16.5746 6.552C16.5746 5.704 16.3186 5.008 15.8066 4.464C15.3106 3.92 14.6706 3.648 13.8866 3.648H11.2226Z" fill="white"/>
<path d="M32.7131 17.28L32.1371 15.24H26.1851L25.6091 17.28H21.5051L27.1931 0.48H31.1051L36.8171 17.28H32.7131ZM27.0491 12.192H31.2731L29.1611 4.728L27.0491 12.192Z" fill="white"/>
<path d="M39.8681 17.28V3.936H35.2601V0.48H48.3641V3.936H43.7321V17.28H39.8681Z" fill="white"/>
<path d="M50.1081 17.28V0.48H60.3801V3.6H53.9961V7.416H60.3801V10.464H53.9961V14.16H60.3801V17.28H50.1081Z" fill="white"/>
<path d="M76.62 6.552C76.62 7.768 76.34 8.856 75.78 9.816C75.22 10.76 74.452 11.472 73.476 11.952L76.428 17.28H72.012L69.372 12.624H67.332V17.28H63.444V0.48H70.596C72.34 0.48 73.78 1.056 74.916 2.208C76.052 3.344 76.62 4.792 76.62 6.552ZM67.332 3.648V9.456H69.996C70.78 9.456 71.42 9.184 71.916 8.64C72.428 8.096 72.684 7.4 72.684 6.552C72.684 5.704 72.428 5.008 71.916 4.464C71.42 3.92 70.78 3.648 69.996 3.648H67.332Z" fill="white"/>
<path d="M84.4093 17.76C82.3453 17.76 80.7293 17.24 79.5613 16.2C78.3933 15.144 77.8093 13.672 77.8093 11.784H81.6973C81.6973 12.696 81.9373 13.408 82.4173 13.92C82.9133 14.432 83.5853 14.688 84.4333 14.688C85.1533 14.688 85.7053 14.528 86.0893 14.208C86.4893 13.888 86.6893 13.432 86.6893 12.84C86.6893 12.328 86.5373 11.92 86.2333 11.616C85.9453 11.296 85.4173 10.984 84.6493 10.68L81.6253 9.504C79.3533 8.656 78.2173 7.128 78.2173 4.92C78.2173 3.432 78.7533 2.24 79.8253 1.344C80.9133 0.448 82.3693 0 84.1933 0C86.0493 0 87.5373 0.488 88.6573 1.464C89.7773 2.424 90.3373 3.712 90.3373 5.328H86.4493C86.4493 4.544 86.2493 3.944 85.8493 3.528C85.4493 3.112 84.8733 2.904 84.1213 2.904C83.4973 2.904 83.0013 3.056 82.6333 3.36C82.2813 3.648 82.1053 4.048 82.1053 4.56C82.1053 5.024 82.2813 5.424 82.6333 5.76C82.9853 6.08 83.5773 6.408 84.4093 6.744L87.1933 7.848C89.4493 8.728 90.5773 10.304 90.5773 12.576C90.5773 14.144 90.0093 15.4 88.8733 16.344C87.7533 17.288 86.2653 17.76 84.4093 17.76Z" fill="white"/>
</g>
<path d="M20.511 6.552C20.511 7.768 20.231 8.856 19.671 9.816C19.111 10.76 18.343 11.472 17.367 11.952L20.319 17.28H15.903L13.263 12.624H11.223V17.28H7.33496V0.48H14.487C16.231 0.48 17.671 1.056 18.807 2.208C19.943 3.344 20.511 4.792 20.511 6.552ZM11.223 3.648V9.456H13.887C14.671 9.456 15.311 9.184 15.807 8.64C16.319 8.096 16.575 7.4 16.575 6.552C16.575 5.704 16.319 5.008 15.807 4.464C15.311 3.92 14.671 3.648 13.887 3.648H11.223Z" fill="white"/>
<path d="M39.8685 17.28V3.936H35.2605V0.48H48.3645V3.936H43.7325V17.28H39.8685Z" fill="white"/>
<path d="M50.1084 17.28V0.48H60.3804V3.6H53.9964V7.416H60.3804V10.464H53.9964V14.16H60.3804V17.28H50.1084Z" fill="white"/>
<path d="M76.6203 6.552C76.6203 7.768 76.3403 8.856 75.7803 9.816C75.2203 10.76 74.4523 11.472 73.4763 11.952L76.4283 17.28H72.0123L69.3723 12.624H67.3323V17.28H63.4443V0.48H70.5963C72.3403 0.48 73.7803 1.056 74.9163 2.208C76.0523 3.344 76.6203 4.792 76.6203 6.552ZM67.3323 3.648V9.456H69.9963C70.7803 9.456 71.4203 9.184 71.9163 8.64C72.4283 8.096 72.6843 7.4 72.6843 6.552C72.6843 5.704 72.4283 5.008 71.9163 4.464C71.4203 3.92 70.7803 3.648 69.9963 3.648H67.3323Z" fill="white"/>
<path d="M84.4096 17.76C82.3456 17.76 80.7296 17.24 79.5616 16.2C78.3936 15.144 77.8096 13.672 77.8096 11.784H81.6976C81.6976 12.696 81.9376 13.408 82.4176 13.92C82.9137 14.432 83.5856 14.688 84.4336 14.688C85.1536 14.688 85.7056 14.528 86.0896 14.208C86.4896 13.888 86.6897 13.432 86.6897 12.84C86.6897 12.328 86.5377 11.92 86.2337 11.616C85.9456 11.296 85.4176 10.984 84.6497 10.68L81.6256 9.504C79.3536 8.656 78.2177 7.128 78.2177 4.92C78.2177 3.432 78.7536 2.24 79.8256 1.344C80.9136 0.448 82.3697 0 84.1936 0C86.0497 0 87.5376 0.488 88.6576 1.464C89.7776 2.424 90.3376 3.712 90.3376 5.328H86.4496C86.4496 4.544 86.2496 3.944 85.8496 3.528C85.4496 3.112 84.8736 2.904 84.1217 2.904C83.4977 2.904 83.0016 3.056 82.6337 3.36C82.2817 3.648 82.1057 4.048 82.1057 4.56C82.1057 5.024 82.2817 5.424 82.6337 5.76C82.9856 6.08 83.5776 6.408 84.4096 6.744L87.1936 7.848C89.4496 8.728 90.5777 10.304 90.5777 12.576C90.5777 14.144 90.0097 15.4 88.8736 16.344C87.7536 17.288 86.2656 17.76 84.4096 17.76Z" fill="white"/>
<path d="M32.1375 15.24L32.7135 17.28H36.8175L31.1055 0.479996H27.1935L21.5055 17.28H25.6095L26.1855 15.24L29.1615 4.728L32.1375 15.24Z" fill="white"/>
<path d="M94.6156 17.216C94.317 17.5253 93.9436 17.68 93.4956 17.68C93.0476 17.68 92.669 17.5253 92.3596 17.216C92.061 16.9067 91.9116 16.5387 91.9116 16.112C91.9116 15.6747 92.061 15.3067 92.3596 15.008C92.669 14.6987 93.0476 14.544 93.4956 14.544C93.9436 14.544 94.317 14.6987 94.6156 15.008C94.925 15.3067 95.0796 15.6747 95.0796 16.112C95.0796 16.5387 94.925 16.9067 94.6156 17.216Z" fill="white"/>
<path d="M97.072 17.52V6.32H99.728L103.616 13.568V6.32H106.096V17.52H103.44L99.552 10.272V17.52H97.072Z" fill="white"/>
<path d="M120.259 11.632V13.584H119.203C118.915 14.9387 118.28 15.9893 117.299 16.736C116.328 17.472 115.075 17.84 113.539 17.84C111.768 17.84 110.334 17.2907 109.235 16.192C108.147 15.0827 107.608 13.6747 107.619 11.968C107.619 10.272 108.158 8.85333 109.235 7.712C110.323 6.57067 111.806 6 113.683 6C115.166 6 116.392 6.35733 117.363 7.072C118.344 7.78667 118.883 8.69333 118.979 9.792H116.147C116.04 9.312 115.768 8.92267 115.331 8.624C114.904 8.32533 114.36 8.176 113.699 8.176C112.6 8.176 111.758 8.52267 111.171 9.216C110.595 9.90933 110.312 10.8107 110.323 11.92C110.312 12.9867 110.606 13.8667 111.203 14.56C111.811 15.2427 112.611 15.584 113.603 15.584C115.171 15.584 116.147 14.9173 116.531 13.584H114.531V11.632H120.259Z" fill="white"/>
</svg>
