<svg width="121" height="18" viewBox="0 0 121 18" fill="none" xmlns="http://www.w3.org/2000/svg">
<g opacity="0.4">
<path d="M3.992 4.032C3.56 4.464 3.016 4.68 2.36 4.68C1.704 4.68 1.16 4.464 0.728004 4.032C0.312004 3.6 0.104004 3.072 0.104004 2.448C0.104004 1.808 0.312004 1.272 0.728004 0.839999C1.16 0.408 1.704 0.192 2.36 0.192C3.016 0.192 3.56 0.416 3.992 0.864C4.424 1.296 4.64 1.824 4.64 2.448C4.64 3.072 4.424 3.6 3.992 4.032ZM0.512004 17.28V5.712H4.184V17.28H0.512004Z" fill="#006EEF"/>
<path d="M20.5111 6.552C20.5111 7.768 20.2311 8.856 19.6711 9.816C19.1111 10.76 18.3431 11.472 17.3671 11.952L20.3191 17.28H15.9031L13.2631 12.624H11.2231V17.28H7.33513V0.48H14.4871C16.2311 0.48 17.6711 1.056 18.8071 2.208C19.9431 3.344 20.5111 4.792 20.5111 6.552ZM11.2231 3.648V9.456H13.8871C14.6711 9.456 15.3111 9.184 15.8071 8.64C16.3191 8.096 16.5751 7.4 16.5751 6.552C16.5751 5.704 16.3191 5.008 15.8071 4.464C15.3111 3.92 14.6711 3.648 13.8871 3.648H11.2231Z" fill="#006EEF"/>
<path d="M32.7136 17.28L32.1376 15.24H26.1856L25.6096 17.28H21.5056L27.1936 0.48H31.1056L36.8176 17.28H32.7136ZM27.0496 12.192H31.2736L29.1616 4.728L27.0496 12.192Z" fill="#006EEF"/>
<path d="M39.8686 17.28V3.936H35.2606V0.48H48.3646V3.936H43.7326V17.28H39.8686Z" fill="#006EEF"/>
<path d="M50.1086 17.28V0.48H60.3806V3.6H53.9966V7.416H60.3806V10.464H53.9966V14.16H60.3806V17.28H50.1086Z" fill="#006EEF"/>
<path d="M76.6205 6.552C76.6205 7.768 76.3405 8.856 75.7805 9.816C75.2205 10.76 74.4525 11.472 73.4765 11.952L76.4285 17.28H72.0125L69.3725 12.624H67.3325V17.28H63.4445V0.48H70.5965C72.3405 0.48 73.7805 1.056 74.9165 2.208C76.0525 3.344 76.6205 4.792 76.6205 6.552ZM67.3325 3.648V9.456H69.9965C70.7805 9.456 71.4205 9.184 71.9165 8.64C72.4285 8.096 72.6845 7.4 72.6845 6.552C72.6845 5.704 72.4285 5.008 71.9165 4.464C71.4205 3.92 70.7805 3.648 69.9965 3.648H67.3325Z" fill="#006EEF"/>
<path d="M84.4098 17.76C82.3458 17.76 80.7298 17.24 79.5618 16.2C78.3938 15.144 77.8098 13.672 77.8098 11.784H81.6978C81.6978 12.696 81.9378 13.408 82.4178 13.92C82.9138 14.432 83.5858 14.688 84.4338 14.688C85.1538 14.688 85.7058 14.528 86.0898 14.208C86.4898 13.888 86.6898 13.432 86.6898 12.84C86.6898 12.328 86.5378 11.92 86.2338 11.616C85.9458 11.296 85.4178 10.984 84.6498 10.68L81.6258 9.504C79.3538 8.656 78.2178 7.128 78.2178 4.92C78.2178 3.432 78.7538 2.24 79.8258 1.344C80.9138 0.448 82.3698 0 84.1938 0C86.0498 0 87.5378 0.488 88.6578 1.464C89.7778 2.424 90.3378 3.712 90.3378 5.328H86.4498C86.4498 4.544 86.2498 3.944 85.8498 3.528C85.4498 3.112 84.8738 2.904 84.1218 2.904C83.4978 2.904 83.0018 3.056 82.6338 3.36C82.2818 3.648 82.1058 4.048 82.1058 4.56C82.1058 5.024 82.2818 5.424 82.6338 5.76C82.9858 6.08 83.5778 6.408 84.4098 6.744L87.1938 7.848C89.4498 8.728 90.5778 10.304 90.5778 12.576C90.5778 14.144 90.0098 15.4 88.8738 16.344C87.7538 17.288 86.2658 17.76 84.4098 17.76Z" fill="#006EEF"/>
</g>
<path d="M20.511 6.552C20.511 7.768 20.231 8.856 19.671 9.816C19.111 10.76 18.343 11.472 17.367 11.952L20.319 17.28H15.903L13.263 12.624H11.223V17.28H7.33496V0.48H14.487C16.231 0.48 17.671 1.056 18.807 2.208C19.943 3.344 20.511 4.792 20.511 6.552ZM11.223 3.648V9.456H13.887C14.671 9.456 15.311 9.184 15.807 8.64C16.319 8.096 16.575 7.4 16.575 6.552C16.575 5.704 16.319 5.008 15.807 4.464C15.311 3.92 14.671 3.648 13.887 3.648H11.223Z" fill="#006EEF"/>
<path d="M39.8685 17.28V3.936H35.2605V0.48H48.3645V3.936H43.7325V17.28H39.8685Z" fill="#006EEF"/>
<path d="M50.1084 17.28V0.48H60.3804V3.6H53.9964V7.416H60.3804V10.464H53.9964V14.16H60.3804V17.28H50.1084Z" fill="#006EEF"/>
<path d="M76.6203 6.552C76.6203 7.768 76.3403 8.856 75.7803 9.816C75.2203 10.76 74.4523 11.472 73.4763 11.952L76.4283 17.28H72.0123L69.3723 12.624H67.3323V17.28H63.4443V0.48H70.5963C72.3403 0.48 73.7803 1.056 74.9163 2.208C76.0523 3.344 76.6203 4.792 76.6203 6.552ZM67.3323 3.648V9.456H69.9963C70.7803 9.456 71.4203 9.184 71.9163 8.64C72.4283 8.096 72.6843 7.4 72.6843 6.552C72.6843 5.704 72.4283 5.008 71.9163 4.464C71.4203 3.92 70.7803 3.648 69.9963 3.648H67.3323Z" fill="#006EEF"/>
<path d="M84.4096 17.76C82.3456 17.76 80.7296 17.24 79.5616 16.2C78.3936 15.144 77.8096 13.672 77.8096 11.784H81.6976C81.6976 12.696 81.9376 13.408 82.4176 13.92C82.9137 14.432 83.5856 14.688 84.4336 14.688C85.1536 14.688 85.7056 14.528 86.0896 14.208C86.4896 13.888 86.6897 13.432 86.6897 12.84C86.6897 12.328 86.5377 11.92 86.2337 11.616C85.9456 11.296 85.4176 10.984 84.6497 10.68L81.6256 9.504C79.3536 8.656 78.2177 7.128 78.2177 4.92C78.2177 3.432 78.7536 2.24 79.8256 1.344C80.9136 0.448 82.3697 0 84.1936 0C86.0497 0 87.5376 0.488 88.6576 1.464C89.7776 2.424 90.3376 3.712 90.3376 5.328H86.4496C86.4496 4.544 86.2496 3.944 85.8496 3.528C85.4496 3.112 84.8736 2.904 84.1217 2.904C83.4977 2.904 83.0016 3.056 82.6337 3.36C82.2817 3.648 82.1057 4.048 82.1057 4.56C82.1057 5.024 82.2817 5.424 82.6337 5.76C82.9856 6.08 83.5776 6.408 84.4096 6.744L87.1936 7.848C89.4496 8.728 90.5777 10.304 90.5777 12.576C90.5777 14.144 90.0097 15.4 88.8736 16.344C87.7536 17.288 86.2656 17.76 84.4096 17.76Z" fill="#006EEF"/>
<path d="M32.1375 15.24L32.7135 17.28H36.8175L31.1055 0.479996H27.1935L21.5055 17.28H25.6095L26.1855 15.24L29.1615 4.728L32.1375 15.24Z" fill="#006EEF"/>
<path d="M94.6161 17.216C94.3174 17.5253 93.9441 17.68 93.4961 17.68C93.0481 17.68 92.6694 17.5253 92.3601 17.216C92.0614 16.9067 91.9121 16.5387 91.9121 16.112C91.9121 15.6747 92.0614 15.3067 92.3601 15.008C92.6694 14.6987 93.0481 14.544 93.4961 14.544C93.9441 14.544 94.3174 14.6987 94.6161 15.008C94.9254 15.3067 95.0801 15.6747 95.0801 16.112C95.0801 16.5387 94.9254 16.9067 94.6161 17.216Z" fill="#006EEF"/>
<path d="M97.0725 17.52V6.32H99.7285L103.616 13.568V6.32H106.096V17.52H103.44L99.5525 10.272V17.52H97.0725Z" fill="#006EEF"/>
<path d="M120.26 11.632V13.584H119.204C118.916 14.9387 118.281 15.9893 117.3 16.736C116.329 17.472 115.076 17.84 113.54 17.84C111.769 17.84 110.334 17.2907 109.236 16.192C108.148 15.0827 107.609 13.6747 107.62 11.968C107.62 10.272 108.158 8.85333 109.236 7.712C110.324 6.57067 111.806 6 113.684 6C115.166 6 116.393 6.35733 117.364 7.072C118.345 7.78667 118.884 8.69333 118.98 9.792H116.148C116.041 9.312 115.769 8.92267 115.332 8.624C114.905 8.32533 114.361 8.176 113.7 8.176C112.601 8.176 111.758 8.52267 111.172 9.216C110.596 9.90933 110.313 10.8107 110.324 11.92C110.313 12.9867 110.606 13.8667 111.204 14.56C111.812 15.2427 112.612 15.584 113.604 15.584C115.172 15.584 116.148 14.9173 116.532 13.584H114.532V11.632H120.26Z" fill="#006EEF"/>
</svg>
