<svg width="632" height="612" viewBox="0 0 632 612" fill="none" xmlns="http://www.w3.org/2000/svg">
<path d="M148.763 80.3873C144.911 102.515 136.579 128.406 143.32 150.69C148.628 168.137 162.761 181.217 177.946 190.399C211.361 210.556 260.656 218.955 289.928 186.973C301.619 174.184 307.039 145.158 291.989 132.37C284.24 125.808 274.363 123.254 265.113 119.469C259.344 117.32 254.134 113.898 249.869 109.458C245.604 105.019 242.394 99.6755 240.477 93.8253C232.011 69.5698 236.423 53.1307 237.386 28.1809C237.639 25.71 237.372 23.2135 236.6 20.8525C235.828 18.4915 234.57 16.3187 232.907 14.4742C229.367 9.97095 224.667 6.51757 219.312 4.48536C214.868 1.80081 209.828 0.261651 204.642 0.00604426C193.556 -0.262715 181.775 8.49434 172.526 13.6903C163.276 18.8864 158.371 25.0902 156.355 35.751C153.712 50.6447 151.316 65.5384 148.763 80.3873Z" fill="#263238"/>
<path d="M144.597 90.5105C149.435 70.3536 154.631 50.555 159.715 30.5773C159.715 30.4429 159.939 30.5773 159.917 30.5773C156.221 47.1284 152.727 63.7242 148.718 80.2529C144.866 96.4232 139.76 112.795 137.386 129.279C131.966 166.233 168.136 186.166 199.872 188.384C201.328 188.384 200.992 190.758 199.536 190.623C171.742 187.801 139.872 174.117 135.348 142.941C133.041 125.919 140.723 106.905 144.597 90.5105Z" fill="#263238"/>
<path d="M235.909 26.0086C235.909 25.9254 235.942 25.8457 236 25.7869C236.059 25.728 236.139 25.695 236.222 25.695C236.305 25.695 236.385 25.728 236.444 25.7869C236.503 25.8457 236.536 25.9254 236.536 26.0086C234.856 46.5014 230.981 70.2418 240.321 89.4804C244.929 98.9421 252.291 106.789 261.441 111.989C268.697 116.088 276.782 117.387 284.576 119.985C315.08 130.108 309.996 172.393 285.159 185.965C284.644 186.256 284.128 185.36 284.644 185.047C302.27 174.341 310.489 151.832 299.627 133.176C290.892 118.17 270.22 119.94 256.894 110.78C229.257 91.7201 231.519 55.5272 235.909 26.0086Z" fill="#263238"/>
<path d="M165.31 220.561L249.967 220.648L250.174 222.263L251.079 229.326C251.861 235.429 252.983 244.188 254.344 254.813C257.065 276.063 260.74 304.777 264.553 334.631C272.179 394.343 280.359 458.611 282.575 476.86C284.785 495.052 286.638 553.778 287.938 608.035C288.587 635.147 289.098 661.118 289.447 680.311C289.621 689.908 289.755 697.81 289.845 703.312C289.89 706.064 289.924 708.215 289.947 709.679C289.955 710.164 289.961 710.573 289.966 710.903H191.94L191.941 710.604C191.944 709.748 191.948 708.485 191.954 706.855C191.965 703.596 191.979 698.868 191.994 692.996C192.025 681.252 192.058 664.931 192.067 646.624C192.087 610.011 192.014 565.447 191.645 533.66C191.477 519.101 191.269 506.138 191.003 496.293C190.87 491.37 190.722 487.222 190.557 484.04C190.393 480.888 190.209 478.615 189.992 477.492C189.135 472.971 187.156 454.616 184.666 429.531C182.18 404.477 179.189 372.787 176.307 341.666C173.425 310.546 170.652 279.997 168.598 257.228C167.572 245.844 166.726 236.404 166.136 229.811C165.841 226.515 165.61 223.93 165.453 222.169L165.31 220.561Z" fill="#DCEEFD" stroke="#006EEF" stroke-width="2"/>
<path d="M209.951 580.883L209.548 537.411C209.548 523.369 209.548 509.304 208.809 495.261C207.442 466.817 201.686 438.867 197.61 410.759C193.534 382.651 190.107 354.432 186.994 326.167C183.523 294.476 180.455 262.74 177.185 231.026C177.185 230.802 176.826 230.802 176.849 231.026C181.574 287.667 186.838 344.286 194.766 400.568C196.722 414.574 198.85 428.549 201.149 442.495C203.389 456.605 205.807 470.737 206.927 485.048C208.047 499.36 208.181 513.044 208.338 527.042C208.473 541.555 208.614 556.06 208.764 570.558C209.077 602.765 209.391 652.328 209.704 684.557C209.704 685.162 210.667 685.139 210.667 684.557C210.376 655.71 210.152 609.618 209.951 580.883Z" fill="#006EEF"/>
<path d="M143.143 219.56C143.143 219.56 185.539 459.382 189.011 477.68C189.817 481.846 190.31 504.556 190.646 533.672L238.306 219.493L143.143 219.56Z" fill="#006EEF"/>
<path d="M112.258 779.697C107.107 778.891 -18.6949 713.157 -21.8752 707.603C-23.1294 705.52 -14.6187 686.64 -3.68919 664.109L-3.33085 663.392C-1.0912 658.756 43.8363 583.011 43.8363 583.011L121.194 628.431L78.2823 704.915L77.5432 706.259C77.5432 706.259 114.43 752.978 117.297 759.429C120.164 765.879 117.431 780.548 112.258 779.697Z" fill="#F7A9A0"/>
<path d="M105.304 480.27L105.304 480.272C105.264 481.325 104.741 482.868 103.941 484.71C103.119 486.6 101.938 488.95 100.457 491.681C97.4944 497.147 93.2976 504.201 88.2868 512.268C78.263 528.407 64.951 548.652 51.6609 568.468C38.3696 588.285 25.095 607.68 15.1436 622.12C10.1678 629.34 6.02258 635.322 3.12123 639.499C1.67056 641.587 0.530835 643.224 -0.246273 644.34C-0.473003 644.665 -0.668867 644.946 -0.83258 645.181L89.0516 700.719C89.223 700.414 89.4364 700.035 89.6897 699.584C90.4394 698.25 91.5393 696.288 92.9395 693.778C95.7401 688.757 99.742 681.543 104.547 672.771C114.158 655.226 126.98 631.452 139.827 606.529C152.677 581.603 165.545 555.541 175.252 533.417C180.106 522.354 184.163 512.29 187.032 503.854C189.911 495.388 191.557 488.657 191.66 484.22C191.66 484.22 191.66 484.22 191.66 484.219L192.66 484.243C193.085 465.586 204.507 316.268 204.507 316.268L105.304 480.27ZM105.304 480.27C106.041 460.168 115.641 377.63 123.73 310.632L123.762 310.368L123.659 310.124L123.659 310.124L123.659 310.123L123.658 310.121L123.651 310.106C123.646 310.093 123.638 310.074 123.628 310.048L123.623 310.035C123.597 309.971 123.558 309.872 123.508 309.739C123.408 309.473 123.262 309.069 123.085 308.534C122.731 307.462 122.252 305.861 121.765 303.765C120.791 299.572 119.782 293.399 119.658 285.522C119.413 269.877 122.663 247.481 136.67 220.493M105.304 480.27L136.67 220.493M136.67 220.493H249.771C249.721 220.812 249.661 221.196 249.591 221.64C249.355 223.125 249.003 225.286 248.54 227.982C247.613 233.375 246.24 240.908 244.455 249.471C240.913 266.464 235.762 287.456 229.279 303.807L136.67 220.493Z" fill="#DCEEFD" stroke="#006EEF" stroke-width="2"/>
<path d="M234.408 302.382C224.056 306.15 214.051 310.811 204.508 316.313C204.432 316.354 204.375 316.423 204.348 316.505C204.322 316.587 204.328 316.677 204.365 316.754C204.403 316.832 204.469 316.893 204.55 316.923C204.63 316.953 204.72 316.952 204.799 316.918C214.855 312.595 225.135 308.452 234.945 303.48C235.027 303.38 235.078 303.259 235.093 303.132C235.108 303.004 235.085 302.874 235.029 302.759C234.972 302.643 234.883 302.546 234.773 302.479C234.663 302.413 234.536 302.379 234.408 302.382Z" fill="#263238"/>
<path d="M220.343 285.741C221.328 279.739 222.135 273.736 222.583 267.667C223.628 256.382 223.508 245.019 222.224 233.759C222.224 233.681 222.194 233.607 222.139 233.553C222.084 233.498 222.01 233.467 221.933 233.467C221.856 233.467 221.782 233.498 221.727 233.553C221.673 233.607 221.642 233.681 221.642 233.759C221.901 249.416 220.981 265.071 218.887 280.59C217.767 288.025 214.005 299.268 221.821 300.411C229.638 301.553 234.901 282.785 235.864 277.633C238.348 262.98 238.912 248.065 237.544 233.266C237.544 232.907 236.894 232.84 236.916 233.266C236.916 245.226 236.222 255.662 235.214 266.861C234.744 272.034 230.578 300.724 221.575 298.619C220.074 298.283 219.335 296.782 219.066 294.52C219.105 291.548 219.511 288.591 220.276 285.719" fill="#263238"/>
<path d="M221.888 299.426C221.093 301.36 220.42 303.342 219.873 305.361C219.281 306.92 218.993 308.577 219.022 310.243C219.038 310.308 219.072 310.366 219.12 310.413C219.168 310.459 219.228 310.491 219.294 310.505C219.359 310.519 219.426 310.514 219.489 310.492C219.552 310.469 219.607 310.43 219.649 310.378C220.581 308.911 221.284 307.309 221.732 305.63C222.426 303.793 223.143 301.957 223.77 300.098C223.82 299.859 223.783 299.61 223.664 299.397C223.545 299.184 223.353 299.021 223.123 298.939C222.893 298.857 222.641 298.861 222.414 298.951C222.187 299.04 222 299.209 221.888 299.426Z" fill="#263238"/>
<path d="M149.57 226.727C146.078 232.728 143.19 239.059 140.948 245.63C138.645 252.182 136.936 258.928 135.841 265.787C135.192 269.191 134.968 272.64 134.587 276.067C134.206 279.493 134.162 282.987 134.363 286.436C134.51 293.343 135.313 300.219 136.76 306.974V307.198C134.117 336.164 131.369 365.115 128.518 394.052C125.666 422.988 122.814 451.932 119.962 480.883L119.671 483.593L119.537 484.96C119.534 485.459 119.435 485.953 119.245 486.415C118.473 488.146 117.598 489.828 116.625 491.455C114.789 494.613 112.885 497.726 110.981 500.816C107.174 507.013 103.314 513.179 99.4021 519.316C91.6081 531.589 83.7245 543.773 75.7289 555.957C59.8946 580.347 43.769 604.557 27.6211 628.746L74.4971 555.15L97.7671 518.286C101.649 512.134 105.486 505.968 109.279 499.786C111.16 496.673 113.042 493.56 114.856 490.424C115.707 488.901 116.692 487.199 117.275 485.945C117.422 485.566 117.498 485.164 117.499 484.758L117.633 483.392L117.902 480.682C120.649 451.745 123.501 422.817 126.457 393.895C129.413 364.974 132.4 336.06 135.416 307.153V307.355C134 300.508 133.25 293.54 133.176 286.548C133.019 283.054 133.355 279.561 133.534 276.089C133.714 272.618 134.274 269.146 135.013 265.72C136.256 258.85 138.107 252.104 140.545 245.563C142.933 239.005 145.956 232.697 149.57 226.727Z" fill="#006EEF"/>
<path d="M205.069 115.684C222.158 124.889 301.374 149.279 329.415 148.159C355.641 147.196 413.178 116.244 415.888 107.845C418.486 99.8944 403.861 50.9131 395.261 53.3991C386.66 55.8852 335.439 92.9963 324.174 94.4969C317.455 95.3703 254.185 93.3098 221.754 94.4969C192.303 95.5271 181.418 102.918 205.069 115.684Z" fill="#F7A9A0"/>
<path d="M252.1 138.126L277.655 91.0932C277.655 91.0932 218.819 90.1749 201.506 94.7886C181.954 99.9846 188.875 108.854 205.426 118.641C221.977 128.428 252.1 138.126 252.1 138.126Z" fill="#006EEF"/>
<path d="M216.959 94.4519C216.959 95.5211 216.535 96.5465 215.779 97.3025C215.023 98.0586 213.997 98.4833 212.928 98.4833C211.859 98.4833 210.833 98.0586 210.077 97.3025C209.321 96.5465 208.897 95.5211 208.897 94.4519C208.891 94.1094 208.944 93.7685 209.053 93.4441C211.293 93.1305 213.846 92.8618 216.512 92.6378C216.809 93.1959 216.963 93.8194 216.959 94.4519ZM241.058 91.3836C240.559 91.8302 240.179 92.394 239.953 93.0243C239.726 93.6545 239.66 94.3313 239.761 94.9934C239.861 95.6555 240.125 96.2822 240.529 96.8167C240.932 97.3512 241.462 97.7768 242.072 98.055C242.681 98.3332 243.35 98.4553 244.018 98.4102C244.686 98.365 245.333 98.1541 245.899 97.7965C246.465 97.4389 246.933 96.9459 247.261 96.3619C247.589 95.778 247.767 95.1215 247.777 94.4519C247.781 93.8286 247.636 93.2133 247.356 92.6566C247.076 92.0998 246.667 91.6175 246.165 91.2492L241.058 91.3836ZM276.579 91.1148H272.1C271.536 91.4757 271.073 91.9726 270.752 92.5597C270.431 93.1468 270.263 93.8052 270.263 94.4743C270.261 95.429 270.597 96.3537 271.212 97.0837C271.827 97.8138 272.681 98.3018 273.623 98.4609L277.251 91.7419C277.065 91.4955 276.838 91.2834 276.579 91.1148ZM198.773 114.497C199.401 114.922 199.983 115.37 200.655 115.751C200.17 115.151 199.514 114.713 198.773 114.497ZM228.27 114.295C227.473 114.3 226.696 114.54 226.036 114.986C225.376 115.431 224.863 116.062 224.561 116.799C224.26 117.536 224.183 118.346 224.341 119.127C224.499 119.907 224.885 120.624 225.449 121.185C226.014 121.747 226.732 122.128 227.514 122.282C228.295 122.436 229.105 122.355 229.84 122.049C230.575 121.743 231.204 121.226 231.646 120.564C232.088 119.902 232.323 119.123 232.323 118.327C232.318 117.255 231.888 116.23 231.128 115.475C230.369 114.719 229.341 114.295 228.27 114.295ZM258.975 114.295C258.178 114.295 257.399 114.532 256.736 114.975C256.073 115.418 255.556 116.047 255.251 116.784C254.946 117.521 254.866 118.331 255.021 119.113C255.177 119.895 255.561 120.613 256.125 121.177C256.689 121.741 257.407 122.125 258.189 122.281C258.971 122.436 259.782 122.356 260.518 122.051C261.255 121.746 261.884 121.229 262.327 120.566C262.77 119.903 263.007 119.124 263.007 118.327C263.007 117.257 262.582 116.232 261.826 115.476C261.07 114.72 260.045 114.295 258.975 114.295Z" fill="white"/>
<path d="M265.672 93.1981C264.53 94.6987 256.333 109.212 254.63 112.414C252.928 115.617 245.784 128.607 244.283 132.056C244.283 132.191 244.418 132.325 244.507 132.191C246.612 129.1 253.847 115.998 255.705 112.795C257.564 109.592 265.314 95.0123 265.941 93.3101C265.941 93.1533 265.739 93.1085 265.672 93.1981Z" fill="#263238"/>
<path opacity="0.1" d="M260.03 123.478L252.102 138.126C252.102 138.126 221.911 128.473 205.36 118.685C191.564 110.511 184.464 103.008 193.803 97.7223L260.03 123.478Z" fill="black"/>
<path d="M248.764 198.507L252.236 225.585L134.855 221.889C134.855 221.889 140.791 135.371 174.609 102.739C191.541 86.4348 210.108 88.8312 221.306 101.597C224.128 104.845 257.41 148.316 260.097 166.682C262.449 182.874 248.764 198.507 248.764 198.507Z" fill="#006EEF"/>
<path d="M185.098 97.3105C185.854 96.5509 186.278 95.5232 186.278 94.4519C184.185 95.4417 182.19 96.6265 180.32 97.9906C180.905 98.3304 181.57 98.5082 182.246 98.5057C183.317 98.4998 184.343 98.0701 185.098 97.3105Z" fill="white"/>
<path d="M208.898 94.4519C208.896 93.9687 208.988 93.4897 209.167 93.041C211.664 93.975 214.016 95.2568 216.155 96.8484C215.792 97.3653 215.308 97.7863 214.747 98.075C214.185 98.3637 213.561 98.5115 212.929 98.5057C211.858 98.4998 210.833 98.0701 210.078 97.3105C209.322 96.5509 208.898 95.5232 208.898 94.4519Z" fill="white"/>
<path d="M153.175 137.7C153.171 137.71 153.167 137.72 153.163 137.73C153.886 138.021 154.508 138.517 154.952 139.158C155.412 139.822 155.659 140.61 155.661 141.418C155.664 141.949 155.562 142.475 155.361 142.967C155.16 143.459 154.863 143.906 154.489 144.283C154.114 144.659 153.669 144.958 153.178 145.162C152.687 145.366 152.161 145.471 151.63 145.471C151.194 145.477 150.761 145.401 150.354 145.247C151.223 142.727 152.16 140.206 153.163 137.73C153.138 137.72 153.112 137.71 153.086 137.7H153.175Z" fill="white"/>
<path d="M182.246 137.386C182.261 137.386 182.276 137.386 182.291 137.386H182.246C181.458 137.391 180.688 137.625 180.03 138.06C179.36 138.504 178.837 139.137 178.528 139.878C178.218 140.62 178.136 141.437 178.292 142.225C178.447 143.014 178.834 143.738 179.402 144.306C179.97 144.875 180.695 145.261 181.483 145.417C182.272 145.573 183.089 145.49 183.83 145.181C184.572 144.871 185.205 144.348 185.649 143.678C186.092 143.008 186.327 142.221 186.322 141.418C186.319 140.885 186.212 140.359 186.005 139.868C185.799 139.377 185.498 138.932 185.119 138.558C184.741 138.183 184.292 137.887 183.799 137.686C183.306 137.485 182.779 137.383 182.246 137.386H182.246Z" fill="white"/>
<path d="M182.291 137.386C182.276 137.386 182.261 137.386 182.246 137.386H182.291Z" fill="white"/>
<path d="M212.93 137.386C212.944 137.386 212.959 137.386 212.974 137.386H212.93C212.141 137.391 211.371 137.625 210.714 138.06C210.044 138.504 209.521 139.137 209.211 139.878C208.901 140.62 208.819 141.437 208.975 142.225C209.131 143.014 209.517 143.738 210.085 144.306C210.654 144.875 211.378 145.261 212.167 145.417C212.955 145.573 213.772 145.49 214.514 145.181C215.255 144.871 215.888 144.348 216.332 143.678C216.776 143.008 217.01 142.221 217.006 141.418C217.003 140.885 216.895 140.359 216.689 139.868C216.482 139.377 216.181 138.932 215.803 138.558C215.424 138.183 214.975 137.887 214.483 137.686C213.99 137.485 213.462 137.383 212.929 137.386H212.93Z" fill="white"/>
<path d="M212.974 137.386C212.959 137.386 212.944 137.386 212.93 137.386H212.974Z" fill="white"/>
<path d="M241.419 138.06C242.077 137.625 242.847 137.391 243.635 137.386H243.635C244.168 137.38 244.697 137.48 245.192 137.68C245.686 137.88 246.136 138.176 246.515 138.551C246.894 138.926 247.195 139.372 247.4 139.864C247.606 140.356 247.711 140.884 247.711 141.418C247.716 142.221 247.481 143.008 247.038 143.678C246.594 144.348 245.961 144.871 245.219 145.181C244.478 145.49 243.661 145.573 242.872 145.417C242.084 145.261 241.359 144.875 240.791 144.306C240.223 143.738 239.836 143.014 239.681 142.225C239.525 141.437 239.607 140.62 239.917 139.878C240.226 139.137 240.749 138.504 241.419 138.06Z" fill="white"/>
<path d="M229.3 189.324C223.031 189.752 216.803 190.642 210.666 191.989C207.62 192.706 204.641 193.557 201.707 194.475C200.229 194.923 198.729 195.326 197.228 195.729C195.663 196.199 194.045 196.469 192.413 196.535C192.383 196.535 192.355 196.547 192.334 196.568C192.313 196.589 192.301 196.618 192.301 196.647C192.301 196.677 192.313 196.706 192.334 196.727C192.355 196.748 192.383 196.759 192.413 196.759C193.949 196.871 195.491 196.871 197.026 196.759C198.533 196.605 200.029 196.358 201.506 196.02C204.596 195.326 207.665 194.475 210.756 193.781C216.959 192.325 223.186 190.847 229.501 189.839C229.703 189.794 229.703 189.301 229.3 189.324Z" fill="#263238"/>
<path d="M244.666 195.192C239.516 194.543 234.335 194.184 229.145 194.117C226.547 194.117 223.971 194.229 221.396 194.431C220.171 194.52 218.94 194.632 217.7 194.767C216.334 194.901 214.99 195.237 213.646 195.371C213.512 195.371 213.49 195.595 213.646 195.595C214.923 195.595 216.222 195.595 217.521 195.595H229.145C234.318 195.595 239.47 195.595 244.666 195.595C244.934 195.618 244.912 195.215 244.666 195.192Z" fill="#263238"/>
<path d="M631.903 108.808C510.962 80.5291 391.282 52.7797 272.864 25.5604C228.339 171.541 240.344 341.352 177.902 479.763C298.844 508.042 418.516 535.792 536.919 563.011C581.466 417.03 569.462 247.286 631.903 108.808Z" fill="#EBEBEB"/>
<path d="M234.049 423.929C299.745 439.009 365.143 453.94 430.243 468.722C431.116 464.87 431.99 460.995 432.818 457.12C367.853 442.354 302.635 427.475 237.162 412.484C236.154 416.471 235.124 420.166 234.049 423.929Z" fill="#DBDBDB"/>
<path d="M241.553 395.059C306.757 409.99 371.707 424.765 436.403 439.382C437.135 435.47 437.881 431.543 438.643 427.602C374.021 412.999 309.205 398.299 244.196 383.503C243.344 387.355 242.471 391.23 241.553 395.059Z" fill="#DBDBDB"/>
<path d="M247.936 365.719C312.736 380.441 377.343 395.066 441.755 409.594C442.412 405.637 443.054 401.673 443.682 397.702C379.329 383.189 314.834 368.616 250.198 353.984C249.451 357.91 248.697 361.822 247.936 365.719Z" fill="#DBDBDB"/>
<path d="M253.377 335.999C347.876 357.35 442.075 378.575 535.977 399.672C536.544 395.656 537.089 391.655 537.612 387.668C443.71 366.57 349.645 345.391 255.415 324.129C254.698 328.093 254.049 332.035 253.377 335.999Z" fill="#DBDBDB"/>
<path d="M258.148 305.965C352.214 327.182 446.175 348.309 540.032 369.347L541.577 357.298C447.765 336.245 353.864 315.148 259.873 294.005C259.321 298.007 258.746 301.993 258.148 305.965Z" fill="#DBDBDB"/>
<path d="M262.404 275.731C356.335 296.858 450.185 317.933 543.952 338.956C544.474 334.94 544.997 330.931 545.519 326.929L264.017 263.726L262.404 275.731Z" fill="#DBDBDB"/>
<path d="M266.391 245.383L547.96 308.631C548.498 304.622 549.058 300.635 549.618 296.627L267.958 233.356C267.443 237.298 266.906 241.374 266.391 245.383Z" fill="#DBDBDB"/>
<path d="M270.332 215.014C364.189 236.096 458.15 257.231 552.215 278.418C552.827 274.432 553.44 270.46 554.052 266.503C459.732 245.226 365.667 224.054 271.855 202.987C271.362 207.003 270.855 211.012 270.332 215.014Z" fill="#DBDBDB"/>
<path d="M274.498 184.71C368.564 205.823 462.801 227.062 557.21 248.429C557.897 244.487 558.599 240.552 559.315 236.626C464.593 215.2 370.221 193.9 276.2 172.728C275.558 176.715 274.991 180.709 274.498 184.71Z" fill="#DBDBDB"/>
<path d="M278.842 154.543C373.101 175.79 467.719 197.193 562.696 218.754C563.472 214.857 564.293 210.967 565.159 207.085C469.929 185.42 375.132 163.942 280.768 142.65C280.096 146.614 279.469 150.579 278.842 154.543Z" fill="#DBDBDB"/>
<path d="M283.881 124.62C378.529 146.046 473.639 167.659 569.213 189.458C570.154 185.636 571.117 181.814 572.102 177.991C476.215 156.043 380.873 134.333 286.076 112.862C285.314 116.782 284.598 120.701 283.881 124.62Z" fill="#DBDBDB"/>
<path d="M289.705 95.0565C384.861 116.721 480.576 138.588 576.851 160.656C577.971 156.893 579.091 153.153 580.278 149.458C483.585 127.196 387.563 105.202 292.214 83.4775C291.385 87.2401 290.534 91.1595 289.705 95.0565Z" fill="#DBDBDB"/>
<path d="M194.34 100.947C194.945 103.186 206.456 117.901 217.005 117.095C220.432 116.804 219.782 97.9904 219.782 97.9904L220.051 96.6018L223.814 76.9824L200.588 63.007L197.229 61.1705C197.229 61.1705 196.557 66.5904 195.773 73.3766C195.773 73.6901 195.773 74.0037 195.661 74.3397C195.549 74.6756 195.661 75.0787 195.527 75.4371C195.392 76.4449 195.258 77.4752 195.169 78.5054C195.079 79.5357 194.989 80.0508 194.945 80.8795C194.9 81.7081 194.788 82.5144 194.721 83.3431C194.19 89.1953 194.063 95.0771 194.34 100.947Z" fill="#F7A9A0"/>
<path d="M223.835 76.9824L220.207 95.818C209.63 92.4474 200.789 85.0775 195.57 75.2803L195.794 73.3766C196.578 66.6576 197.25 61.1705 197.25 61.1705L200.61 63.007L223.835 76.9824Z" fill="#263238"/>
<path d="M247.621 45.1803C252.504 79.8726 232.257 86.7036 224.777 87.7338C218.058 88.6745 194.743 91.0261 186.322 57.0057C177.901 22.9853 192.481 9.77135 207.912 6.79261C223.343 3.81387 242.851 10.488 247.621 45.1803Z" fill="#F7A9A0"/>
<path d="M241.821 40.4992C241.017 40.4477 240.217 40.3505 239.425 40.208C238.562 40.2129 237.721 39.9378 237.028 39.4242C236.843 39.2235 236.731 38.9659 236.71 38.6934C236.69 38.4209 236.763 38.1496 236.916 37.9236C237.275 37.5084 237.738 37.1976 238.259 37.0242C238.779 36.8507 239.337 36.821 239.873 36.9381C241.002 37.0009 242.067 37.489 242.851 38.3043C243.022 38.4976 243.132 38.7364 243.168 38.9914C243.205 39.2465 243.166 39.5066 243.056 39.7398C242.947 39.9731 242.772 40.1692 242.552 40.3041C242.333 40.439 242.079 40.5068 241.821 40.4992Z" fill="#263238"/>
<path d="M218.146 41.8422C218.904 41.6491 219.652 41.4173 220.386 41.1479C221.243 41.024 222.032 40.6135 222.626 39.9833C222.776 39.7549 222.845 39.4821 222.821 39.2095C222.796 38.937 222.68 38.6808 222.491 38.4827C222.066 38.1345 221.554 37.9072 221.01 37.8244C220.467 37.7417 219.911 37.8066 219.401 38.0124C218.298 38.2607 217.33 38.9167 216.691 39.8489C216.545 40.0734 216.472 40.3368 216.479 40.6042C216.487 40.8716 216.575 41.1304 216.733 41.3464C216.891 41.5624 217.11 41.7255 217.363 41.814C217.615 41.9025 217.888 41.9124 218.146 41.8422Z" fill="#263238"/>
<path d="M223.724 48.3605C223.724 48.3605 223.545 48.3605 223.567 48.5844C223.903 50.9361 223.881 53.7133 221.82 54.7211C221.82 54.7211 221.82 54.8779 221.82 54.8555C224.418 54.206 224.418 50.5329 223.724 48.3605Z" fill="#263238"/>
<path d="M221.328 46.0987C217.498 46.2331 218.013 53.9151 221.574 53.8031C225.135 53.6911 224.553 46.0091 221.328 46.0987Z" fill="#263238"/>
<path d="M219.85 46.6135C219.223 47.0838 218.618 47.9125 217.812 48.0469C217.006 48.1812 216.11 47.4422 215.461 46.7031H215.326C215.326 48.1588 216.065 49.637 217.566 49.749C219.066 49.861 219.962 48.4724 220.209 46.9718C220.388 46.927 220.119 46.4119 219.85 46.6135Z" fill="#263238"/>
<path d="M237.027 47.1281C237.027 47.1281 237.229 47.1281 237.229 47.3296C237.229 49.7037 237.879 52.4137 240.096 53.0408V53.1751C237.431 53.0184 236.759 49.4125 237.027 47.1281Z" fill="#263238"/>
<path d="M238.955 44.4856C242.762 43.8809 243.681 51.5181 240.164 52.078C236.648 52.638 235.775 44.9783 238.955 44.4856Z" fill="#263238"/>
<path d="M240.612 44.7989C241.261 45.1124 241.956 45.7843 242.672 45.7395C243.389 45.6948 244.039 44.7989 244.486 43.9478C244.486 43.9478 244.598 43.9478 244.621 43.9478C244.822 45.4036 244.621 46.9714 243.165 47.4417C241.709 47.912 240.925 46.7026 240.298 45.202C240.186 45.0901 240.343 44.6869 240.612 44.7989Z" fill="#263238"/>
<path d="M226.815 67.7778C227.464 68.2481 228.136 68.92 229.054 68.8752C229.935 68.7323 230.774 68.4041 231.518 67.9121C231.518 67.9121 231.675 67.9121 231.63 67.9121C231.357 68.426 230.951 68.8572 230.455 69.1605C229.958 69.4639 229.39 69.6283 228.808 69.6367C228.294 69.5904 227.805 69.3905 227.406 69.0631C227.006 68.7356 226.714 68.2955 226.568 67.8002C226.546 67.7778 226.725 67.7106 226.815 67.7778Z" fill="#263238"/>
<path d="M225.226 61.5296C225.952 62.3508 226.841 63.0133 227.835 63.4758C228.829 63.9382 229.908 64.1906 231.004 64.2172C231.962 64.2373 232.918 64.1318 233.849 63.9036L234.386 63.7469L234.879 63.5901C235.001 63.5539 235.106 63.4755 235.176 63.3688C235.246 63.2622 235.275 63.1342 235.26 63.0078C235.273 62.9337 235.273 62.8579 235.26 62.7838V62.6046C235.013 60.8129 234.431 58.1253 234.431 58.1253C235.125 58.3493 238.664 59.3123 238.462 58.3941C237.013 50.4308 234.761 42.6345 231.743 35.124C231.721 35.077 231.683 35.0393 231.635 35.0173C231.588 34.9954 231.535 34.9907 231.484 35.004C231.434 35.0172 231.39 35.0477 231.359 35.09C231.329 35.1324 231.314 35.184 231.318 35.236C232.639 42.6269 235.215 49.7042 236.648 57.0951C235.389 56.7322 234.084 56.5512 232.774 56.5576C232.527 56.5576 234.005 61.6864 234.05 62.515C232.617 62.8944 231.122 62.9789 229.655 62.7633C228.188 62.5477 226.78 62.0366 225.517 61.2608C225.226 61.1936 225.024 61.3728 225.226 61.5296Z" fill="#263238"/>
<path d="M186.747 55.0797C195.056 54.7214 194.317 41.6418 194.317 41.6418C194.317 41.6418 203.679 40.298 203.589 25.0907C205.582 28.0576 208.239 30.5193 211.349 32.2804C214.46 34.0415 217.937 35.0536 221.507 35.2364C224.239 35.5051 214.788 28.9653 214.788 28.9653C214.788 28.9653 226.12 38.2375 246.143 33.4447C247.554 33.1087 243.433 12.0335 227.285 5.60573C211.137 -0.82209 197.139 3.99317 187.867 14.5644C185.157 16.1672 182.885 18.4143 181.252 21.1062C179.618 23.7982 178.675 26.8516 178.505 29.9956C177.632 40.9699 183.522 55.2141 186.747 55.0797Z" fill="#263238"/>
<path d="M192.28 58.9313C192.28 58.9313 184.083 48.4049 179.267 51.3837C174.452 54.3624 181.037 69.9056 186.972 71.7645C187.716 72.0518 188.511 72.1861 189.308 72.1593C190.106 72.1325 190.889 71.9452 191.613 71.6086C192.336 71.272 192.984 70.793 193.518 70.2003C194.052 69.6075 194.461 68.9132 194.721 68.1587L192.28 58.9313Z" fill="#F7A9A0"/>
<path d="M181.26 55.8854V56.0422C185.426 57.4755 187.777 61.1486 189.479 65.0008C189.222 64.6048 188.882 64.2694 188.482 64.0174C188.083 63.7655 187.634 63.6031 187.165 63.5413C186.697 63.4796 186.221 63.5201 185.77 63.6599C185.319 63.7997 184.903 64.0356 184.552 64.3513C184.44 64.3513 184.552 64.5976 184.552 64.5752C185.257 64.3084 186.027 64.2663 186.757 64.4548C187.487 64.6433 188.141 65.0531 188.628 65.6279C189.429 66.6031 190.134 67.6531 190.734 68.7634C190.935 69.1217 191.585 68.8978 191.428 68.4723C191.293 63.0971 186.881 56.0198 181.26 55.8854Z" fill="#263238"/>
<path d="M190.891 69.9503C190.912 70.2904 190.832 70.6292 190.661 70.9239C190.49 71.2187 190.236 71.4561 189.93 71.6063C189.624 71.7566 189.281 71.8128 188.943 71.7679C188.605 71.7231 188.288 71.5791 188.032 71.3543C187.776 71.1294 187.592 70.8338 187.504 70.5046C187.416 70.1754 187.427 69.8275 187.537 69.5048C187.646 69.1821 187.849 68.899 188.119 68.6913C188.389 68.4835 188.714 68.3605 189.054 68.3377C189.281 68.3225 189.508 68.3522 189.723 68.4251C189.939 68.498 190.137 68.6127 190.308 68.7625C190.478 68.9123 190.618 69.0944 190.718 69.2982C190.818 69.5021 190.877 69.7236 190.891 69.9503Z" fill="white"/>
<path d="M196.289 46.9491L181.619 46.8819L181.933 43.0073L196.423 44.7543L196.289 46.9491Z" fill="#006EEF"/>
<path d="M196.916 43.2313L182.471 40.5662L183.479 36.8035L197.432 41.1037L196.916 43.2313Z" fill="#006EEF"/>
<path d="M165.516 121.686C158.797 139.043 133.69 221.104 144.508 251.25C151.227 269.75 216.647 306.211 233.221 314.341C240.455 317.88 266.816 271.273 263.613 263.3C260.41 255.326 197.946 224.576 193.87 219.604C193.87 219.604 191.63 161.104 190.376 130.018C189.167 100.544 178.192 89.2334 165.516 121.686Z" fill="#F7A9A0"/>
<path d="M305.471 290.109C314.721 294.073 330.107 291.632 329.391 299.067C328.674 305.786 317.812 306.346 317.812 306.346C317.812 306.346 330.286 309.571 327.509 316.47C324.732 323.368 312.683 321.666 312.683 321.666C312.683 321.666 323.187 323.905 319.917 330.624C316.647 337.343 306.121 337.746 306.121 337.746C306.121 337.746 308.696 340.434 304.262 344.129C297.901 349.415 280.454 345.675 271.787 341.554C263.119 337.433 234.496 315.977 230.174 312.617L256.109 256.85C256.109 256.85 274.877 257.051 284.374 258.328C293.87 259.605 324.015 272.483 321.328 280.187C318.64 287.892 297.52 278.418 291.832 277.231C286.143 276.044 284.911 277.231 287.061 279.694C288.472 281.285 301.373 288.362 305.471 290.109Z" fill="#F7A9A0"/>
<path d="M317.296 306.122C302.089 305.943 295.482 303.255 282.917 295.125C282.671 294.968 282.38 295.304 282.604 295.483C294.183 304.554 301.999 309.145 317.318 306.861C318.08 306.727 318.013 306.122 317.296 306.122Z" fill="#263238"/>
<path d="M313.334 321.532C297.544 319.986 290.332 317.052 276.558 309.572C276.515 309.558 276.469 309.56 276.427 309.576C276.384 309.592 276.349 309.622 276.326 309.661C276.302 309.699 276.293 309.745 276.298 309.79C276.304 309.834 276.325 309.876 276.357 309.908C289.257 318.441 297.163 322.831 313.11 322.316C313.849 322.405 314.05 321.599 313.334 321.532Z" fill="#263238"/>
<path d="M305.965 337.545C290.825 334.947 282.785 332.147 270.332 323.121C270.276 323.074 270.203 323.051 270.129 323.057C270.056 323.063 269.988 323.099 269.94 323.155C269.893 323.211 269.87 323.284 269.876 323.358C269.882 323.431 269.918 323.499 269.974 323.547C281.755 334.006 291.766 337.567 305.808 338.015C306.816 338.082 306.928 337.724 305.965 337.545Z" fill="#263238"/>
<path d="M196.11 171.161L143.635 181.306C143.635 181.306 160.656 124.979 170.331 109.816C181.239 92.7725 187.577 102.067 191.855 120.813C196.132 139.559 196.11 171.161 196.11 171.161Z" fill="#006EEF"/>
<path d="M186.277 141.418C186.281 142.221 186.047 143.008 185.603 143.678C185.159 144.348 184.526 144.871 183.785 145.181C183.043 145.491 182.226 145.573 181.438 145.417C180.649 145.261 179.925 144.875 179.357 144.307C178.788 143.738 178.402 143.014 178.246 142.225C178.09 141.437 178.173 140.62 178.482 139.878C178.792 139.137 179.315 138.504 179.985 138.06C180.655 137.616 181.442 137.382 182.245 137.386C183.313 137.392 184.335 137.819 185.09 138.574C185.844 139.328 186.271 140.35 186.277 141.418ZM167.732 114.407C166.68 116.49 165.493 118.887 164.463 121.53C165.151 122.073 166.004 122.365 166.881 122.358C167.412 122.361 167.937 122.259 168.428 122.057C168.918 121.856 169.364 121.559 169.739 121.184C170.114 120.809 170.41 120.364 170.612 119.873C170.813 119.383 170.916 118.857 170.913 118.327C170.921 117.406 170.607 116.511 170.027 115.796C169.447 115.08 168.635 114.59 167.732 114.407ZM166.993 161.261C166.197 161.266 165.42 161.506 164.76 161.951C164.1 162.397 163.587 163.028 163.285 163.765C162.983 164.502 162.907 165.312 163.065 166.093C163.223 166.873 163.608 167.589 164.173 168.151C164.738 168.712 165.456 169.094 166.237 169.248C167.019 169.402 167.828 169.321 168.564 169.015C169.299 168.709 169.927 168.192 170.369 167.53C170.811 166.867 171.047 166.089 171.047 165.292C171.041 164.221 170.612 163.196 169.852 162.44C169.092 161.685 168.065 161.261 166.993 161.261ZM196.109 161.597C195.376 161.916 194.754 162.446 194.322 163.119C193.891 163.793 193.669 164.579 193.686 165.379C193.703 166.178 193.957 166.955 194.417 167.609C194.876 168.264 195.52 168.767 196.266 169.055C196.109 167.375 196.109 164.8 196.109 161.597Z" fill="white"/>
<path d="M149.234 170.466C151.003 169.839 167.33 166.434 170.891 165.785C174.452 165.135 189.01 162.291 192.75 161.91C192.771 161.901 192.793 161.898 192.815 161.9C192.838 161.902 192.859 161.909 192.878 161.921C192.896 161.933 192.912 161.95 192.922 161.97C192.933 161.989 192.938 162.011 192.938 162.034C192.938 162.056 192.933 162.078 192.922 162.097C192.912 162.117 192.896 162.134 192.878 162.146C192.859 162.158 192.838 162.166 192.815 162.167C192.793 162.169 192.771 162.166 192.75 162.157C189.167 163.232 174.52 166.143 170.891 166.882C167.263 167.621 151.048 170.623 149.211 170.712C149.077 170.712 149.077 170.511 149.234 170.466Z" fill="#263238"/>
<path d="M192.011 171.922C193.579 171.496 196.02 170.959 196.02 170.959C196.02 164.733 193.512 133.333 193.019 125.74C193.019 125.606 193.198 125.606 193.198 125.74C193.765 130.025 194.288 134.296 194.766 138.551C194.766 138.014 194.766 137.476 194.766 136.938C194.878 134.99 195.035 133.064 195.079 131.138C195.079 130.959 195.326 130.936 195.326 131.138C195.46 133.084 195.46 135.037 195.326 136.983C195.214 138.372 195.035 139.716 194.833 141.082C195.102 143.545 195.393 145.987 195.595 148.45C196.222 156.02 197.14 163.837 197.185 171.429C195.433 171.895 193.64 172.195 191.832 172.325C191.809 172.347 191.787 171.989 192.011 171.922Z" fill="#263238"/>
<path d="M148.718 180.231C147.039 180.724 145.381 181.127 143.702 181.575L143.164 181.709V181.127C144.616 174.192 146.501 167.355 148.808 160.656C149.95 157.297 151.048 153.937 152.503 150.69C153.959 147.442 155.236 144.172 156.804 140.992C155.796 144.396 154.698 147.711 153.623 151.093L150.353 161.171L143.858 181.328L143.455 180.88C145.269 180.656 146.994 180.41 148.718 180.231Z" fill="#263238"/>
<path d="M152.234 153.513C151.758 152.116 151.635 150.624 151.875 149.168C151.958 148.408 152.116 147.658 152.346 146.928C152.573 146.23 152.881 145.561 153.264 144.935C153.281 146.366 153.184 147.797 152.973 149.213C152.771 150.713 152.57 152.191 152.234 153.513Z" fill="#263238"/>
<path d="M403.212 29.0097C405.102 28.7827 407.016 29.164 408.675 30.0983C410.334 31.0326 411.653 32.4714 412.439 34.2057C412.439 34.2057 416.493 26.658 423.637 27.1732C427.288 27.4419 430.065 33.5114 430.065 33.5114C430.065 33.5114 433.581 27.6211 439.852 28.4722C444.869 29.1441 446.907 35.1911 446.907 35.1911C446.907 35.1911 452.91 31.0926 457.792 33.4218C467.669 38.1251 466.415 81.4848 450.244 87.7111C442.719 90.6226 443.525 80.0514 443.525 80.0514C443.525 80.0514 438.598 94.9452 429.662 94.9004C420.726 94.8556 422.674 81.2161 422.674 81.2161C422.674 81.2161 417.769 95.5947 408.497 94.654C398.844 93.6462 403.167 80.3202 403.167 80.3202C403.167 80.3202 396.448 89.7716 389.438 87.3975C377.993 83.5005 394.208 63.0973 392.215 53.5115L374.566 49.0322C374.566 49.0322 395.44 29.6144 403.212 29.0097Z" fill="#F7A9A0"/>
<path d="M447.31 35.9077C447.31 35.7733 447.511 35.7286 447.534 35.9077C450.774 50.8365 449.391 66.3981 443.57 80.5217C443.39 80.9696 442.584 80.8352 442.696 80.2977C446.394 65.8058 447.948 50.8503 447.31 35.9077Z" fill="#263238"/>
<path d="M430.109 33.198C430.109 33.0412 430.378 33.0188 430.422 33.198C433.491 48.0022 431.811 66.7929 423.076 81.5522C422.785 82.0673 422.001 82.2241 422.315 81.5522C427.377 71.3618 430.915 47.1959 430.109 33.198Z" fill="#263238"/>
<path d="M402.158 80.9915C409.975 66.5233 412.371 51.0025 412.528 34.6978C412.528 34.4962 412.841 34.5186 412.886 34.6978C414.969 42.6933 413.782 53.0629 412.169 61.0585C410.815 68.4948 407.533 75.4453 402.651 81.2154C402.517 81.5066 402.158 81.305 402.158 80.9915Z" fill="#263238"/>
<path d="M443.167 80.7238C442.253 83.7421 440.886 86.6042 439.113 89.2121C437.403 92.0144 434.726 94.0938 431.588 95.0576C429.936 95.4951 428.188 95.401 426.593 94.7888C424.989 94.0624 423.735 92.7354 423.099 91.0934C422.016 87.9881 421.746 84.6572 422.315 81.4181L423.816 81.8213C422.665 84.8561 421.006 87.6733 418.911 90.1528C416.802 92.7724 413.821 94.5453 410.512 95.1472C408.809 95.3818 407.073 95.1736 405.473 94.5425C404.664 94.1907 403.934 93.6776 403.33 93.0345C402.725 92.3915 402.258 91.6319 401.957 90.8023C401.05 87.6199 401.136 84.2367 402.203 81.1045L403.144 81.6197C402.107 82.7949 400.96 83.8674 399.717 84.8224C398.489 85.7898 397.132 86.5813 395.686 87.174C394.225 87.7685 392.64 87.9916 391.072 87.8235C389.535 87.5686 388.113 86.8496 386.996 85.763C388.175 86.7185 389.607 87.3099 391.117 87.4652C392.61 87.5318 394.096 87.2238 395.44 86.5693C398.098 85.1954 400.435 83.2715 402.293 80.9254L403.794 79.1337L403.234 81.3733C402.341 84.2928 402.341 87.4125 403.234 90.332C403.471 90.9799 403.84 91.5713 404.318 92.0687C404.796 92.5661 405.373 92.9586 406.011 93.2211C407.354 93.723 408.805 93.8696 410.221 93.6466C413.133 93.0806 415.747 91.4918 417.59 89.1673C419.565 86.8462 421.153 84.222 422.293 81.3957L424.712 75.4158L423.794 81.7989C423.244 84.75 423.444 87.792 424.376 90.6455C424.848 91.9733 425.81 93.0707 427.064 93.7138C428.409 94.222 429.878 94.3079 431.274 93.9602C434.212 93.125 436.768 91.2965 438.508 88.7866C440.425 86.3265 441.993 83.6132 443.167 80.7238Z" fill="#263238"/>
<path d="M481.757 549.036C522.662 549.036 555.822 515.876 555.822 474.97C555.822 434.065 522.662 400.905 481.757 400.905C440.852 400.905 407.691 434.065 407.691 474.97C407.691 515.876 440.852 549.036 481.757 549.036Z" fill="#006EEF"/>
<path d="M457.583 499.417C471.621 513.454 494.379 513.454 508.417 499.417C522.454 485.38 522.454 462.621 508.417 448.583C494.379 434.546 471.621 434.546 457.583 448.583C443.546 462.621 443.546 485.38 457.583 499.417Z" stroke="white" stroke-width="2" stroke-linecap="round" stroke-linejoin="round"/>
<path d="M474.103 482.896L489.354 467.646" stroke="white" stroke-width="2" stroke-linecap="round" stroke-linejoin="round"/>
<path d="M476.646 465.104L491.897 465.104L491.896 480.354" stroke="white" stroke-width="2" stroke-linecap="round" stroke-linejoin="round"/>
</svg>
