<svg width="48" height="48" viewBox="0 0 48 48" fill="none" xmlns="http://www.w3.org/2000/svg">
<path opacity="0.4" d="M40.8202 13.92V19.6L14.8002 38.68L9.54018 34.74C8.24018 33.76 7.18018 31.66 7.18018 30.04V13.92C7.18018 11.68 8.90018 9.2 11.0002 8.42L21.9402 4.32C23.0802 3.9 24.9202 3.9 26.0602 4.32L37.0002 8.42C39.1002 9.2 40.8202 11.68 40.8202 13.92Z" fill="#050BAC"/>
<path d="M40.8201 22.34V30.04C40.8201 31.66 39.7601 33.76 38.4601 34.74L27.5201 42.92C26.5601 43.64 25.2801 44 24.0001 44C22.7201 44 21.4401 43.64 20.4801 42.92L16.6401 40.06L40.8201 22.34Z" fill="#050BAC"/>
</svg>
