<svg width="32" height="32" viewBox="0 0 32 32" fill="none" xmlns="http://www.w3.org/2000/svg">
<path opacity="0.4" d="M22.6672 27.3333H9.3339C5.3339 27.3333 2.66724 25.3333 2.66724 20.6666L2.66724 11.3333C2.66724 6.66663 5.3339 4.66663 9.3339 4.66663L22.6672 4.66663C26.6672 4.66663 29.3339 6.66663 29.3339 11.3333V20.6666C29.3339 25.3333 26.6672 27.3333 22.6672 27.3333Z" fill="#828282"/>
<path d="M16.0006 17.16C14.8806 17.16 13.7473 16.8133 12.8806 16.1066L8.70726 12.7733C8.2806 12.4266 8.2006 11.8 8.54727 11.3733C8.89394 10.9466 9.52061 10.8666 9.94727 11.2133L14.1206 14.5466C15.1339 15.36 16.8539 15.36 17.8673 14.5466L22.0406 11.2133C22.4673 10.8666 23.1073 10.9333 23.4406 11.3733C23.7873 11.8 23.7206 12.44 23.2806 12.7733L19.1073 16.1066C18.2539 16.8133 17.1206 17.16 16.0006 17.16Z" fill="#828282"/>
</svg>
