<svg width="48" height="48" viewBox="0 0 48 48" fill="none" xmlns="http://www.w3.org/2000/svg">
<path d="M30 31C30 38.18 24.18 44 17 44C9.82 44 4 38.18 4 31C4 23.82 9.82 18 17 18C17.34 18 17.7 18.02 18.04 18.04C24.38 18.54 29.46 23.62 29.96 29.96C29.98 30.3 30 30.66 30 31Z" fill="#050BAC"/>
<path opacity="0.4" d="M44 17C44 24.18 38.18 30 31 30C30.66 30 30.3 29.98 29.96 29.96C29.46 23.62 24.38 18.54 18.04 18.04C18.02 17.7 18 17.34 18 17C18 9.82 23.82 4 31 4C38.18 4 44 9.82 44 17Z" fill="#050BAC"/>
<path d="M11.18 4H6C4.9 4 4 4.9 4 6V11.18C4 12.96 6.15998 13.86 7.41998 12.6L12.6 7.42001C13.84 6.16001 12.96 4 11.18 4Z" fill="#050BAC"/>
<path d="M36.8199 44H41.9999C43.0999 44 43.9999 43.1 43.9999 42V36.82C43.9999 35.04 41.8399 34.14 40.5799 35.4L35.3999 40.58C34.1599 41.84 35.0399 44 36.8199 44Z" fill="#050BAC"/>
</svg>
