<svg width="32" height="32" viewBox="0 0 32 32" fill="none" xmlns="http://www.w3.org/2000/svg">
<circle cx="16" cy="16" r="15.605" stroke="white" stroke-opacity="0.3" stroke-width="0.79"/>
<g clip-path="url(#clip0_102_449)">
<path d="M22 12.2793C21.5538 12.475 21.0782 12.6047 20.5825 12.6677C21.0925 12.3632 21.4818 11.8847 21.6648 11.308C21.1892 11.5915 20.6642 11.7918 20.1047 11.9035C19.6532 11.4228 19.0097 11.125 18.3077 11.125C16.9457 11.125 15.8492 12.2305 15.8492 13.5858C15.8492 13.7808 15.8657 13.9682 15.9062 14.1467C13.861 14.047 12.0512 13.0668 10.8355 11.5735C10.6233 11.9418 10.4988 12.3633 10.4988 12.817C10.4988 13.669 10.9375 14.4242 11.5915 14.8615C11.1962 14.854 10.8085 14.7392 10.48 14.5585C10.48 14.566 10.48 14.5757 10.48 14.5855C10.48 15.781 11.3327 16.774 12.451 17.0027C12.2507 17.0575 12.0325 17.0837 11.806 17.0837C11.6485 17.0837 11.4895 17.0747 11.3403 17.0417C11.659 18.016 12.5635 18.7322 13.639 18.7555C12.802 19.4102 11.7393 19.8048 10.5888 19.8048C10.387 19.8048 10.1935 19.7957 10 19.771C11.0897 20.4738 12.3813 20.875 13.774 20.875C18.301 20.875 20.776 17.125 20.776 13.8745C20.776 13.7657 20.7723 13.6608 20.767 13.5565C21.2552 13.21 21.6655 12.7773 22 12.2793Z" fill="white"/>
</g>
<defs>
<clipPath id="clip0_102_449">
<rect width="12" height="12" fill="white" transform="translate(10 10)"/>
</clipPath>
</defs>
</svg>
